<?xml version="1.0" encoding="utf-8" standalone="no"?>
<!DOCTYPE svg PUBLIC "-//W3C//DTD SVG 1.1//EN"
  "http://www.w3.org/Graphics/SVG/1.1/DTD/svg11.dtd">
<!-- Created with matplotlib (https://matplotlib.org/) -->
<svg height="401.533825pt" version="1.1" viewBox="0 0 954.3313 401.533825" width="954.3313pt" xmlns="http://www.w3.org/2000/svg" xmlns:xlink="http://www.w3.org/1999/xlink">
 <metadata>
  <rdf:RDF xmlns:cc="http://creativecommons.org/ns#" xmlns:dc="http://purl.org/dc/elements/1.1/" xmlns:rdf="http://www.w3.org/1999/02/22-rdf-syntax-ns#">
   <cc:Work>
    <dc:type rdf:resource="http://purl.org/dc/dcmitype/StillImage"/>
    <dc:date>2021-01-21T13:52:17.799158</dc:date>
    <dc:format>image/svg+xml</dc:format>
    <dc:creator>
     <cc:Agent>
      <dc:title>Matplotlib v3.3.2, https://matplotlib.org/</dc:title>
     </cc:Agent>
    </dc:creator>
   </cc:Work>
  </rdf:RDF>
 </metadata>
 <defs>
  <style type="text/css">*{stroke-linecap:butt;stroke-linejoin:round;}</style>
 </defs>
 <g id="figure_1">
  <g id="patch_1">
   <path d="M 0 401.533825 
L 954.3313 401.533825 
L 954.3313 0 
L 0 0 
z
" style="fill:none;"/>
  </g>
  <g id="axes_1">
   <g id="patch_2">
    <path d="M 54.3313 351.76065 
L 460.149482 351.76065 
L 460.149482 25.60065 
L 54.3313 25.60065 
z
" style="fill:#ffffff;"/>
   </g>
   <g id="PathCollection_1">
    <defs>
     <path d="M 0 3.535534 
C 0.937635 3.535534 1.836992 3.163008 2.5 2.5 
C 3.163008 1.836992 3.535534 0.937635 3.535534 0 
C 3.535534 -0.937635 3.163008 -1.836992 2.5 -2.5 
C 1.836992 -3.163008 0.937635 -3.535534 0 -3.535534 
C -0.937635 -3.535534 -1.836992 -3.163008 -2.5 -2.5 
C -3.163008 -1.836992 -3.535534 -0.937635 -3.535534 0 
C -3.535534 0.937635 -3.163008 1.836992 -2.5 2.5 
C -1.836992 3.163008 -0.937635 3.535534 0 3.535534 
z
" id="mb74edb3b39" style="stroke:#023eff;stroke-width:0.8;"/>
    </defs>
    <g clip-path="url(#p81d9b8422f)">
     <use style="fill:#023eff;stroke:#023eff;stroke-width:0.8;" x="191.460016" xlink:href="#mb74edb3b39" y="198.465371"/>
     <use style="fill:#023eff;stroke:#023eff;stroke-width:0.8;" x="225.407386" xlink:href="#mb74edb3b39" y="179.032514"/>
     <use style="fill:#023eff;stroke:#023eff;stroke-width:0.8;" x="171.108806" xlink:href="#mb74edb3b39" y="196.601739"/>
     <use style="fill:#023eff;stroke:#023eff;stroke-width:0.8;" x="195.248986" xlink:href="#mb74edb3b39" y="170.464009"/>
     <use style="fill:#023eff;stroke:#023eff;stroke-width:0.8;" x="199.787961" xlink:href="#mb74edb3b39" y="173.437568"/>
    </g>
   </g>
   <g id="PathCollection_2">
    <defs>
     <path d="M 0 3.535534 
C 0.937635 3.535534 1.836992 3.163008 2.5 2.5 
C 3.163008 1.836992 3.535534 0.937635 3.535534 0 
C 3.535534 -0.937635 3.163008 -1.836992 2.5 -2.5 
C 1.836992 -3.163008 0.937635 -3.535534 0 -3.535534 
C -0.937635 -3.535534 -1.836992 -3.163008 -2.5 -2.5 
C -3.163008 -1.836992 -3.535534 -0.937635 -3.535534 0 
C -3.535534 0.937635 -3.163008 1.836992 -2.5 2.5 
C -1.836992 3.163008 -0.937635 3.535534 0 3.535534 
z
" id="mec6a24ae28" style="stroke:#ff7c00;stroke-width:0.8;"/>
    </defs>
    <g clip-path="url(#p81d9b8422f)">
     <use style="fill:#ff7c00;stroke:#ff7c00;stroke-width:0.8;" x="326.454406" xlink:href="#mec6a24ae28" y="181.106327"/>
     <use style="fill:#ff7c00;stroke:#ff7c00;stroke-width:0.8;" x="327.300389" xlink:href="#mec6a24ae28" y="167.943861"/>
     <use style="fill:#ff7c00;stroke:#ff7c00;stroke-width:0.8;" x="362.586498" xlink:href="#mec6a24ae28" y="134.498184"/>
     <use style="fill:#ff7c00;stroke:#ff7c00;stroke-width:0.8;" x="368.733914" xlink:href="#mec6a24ae28" y="143.60431"/>
     <use style="fill:#ff7c00;stroke:#ff7c00;stroke-width:0.8;" x="338.723524" xlink:href="#mec6a24ae28" y="154.663533"/>
     <use style="fill:#ff7c00;stroke:#ff7c00;stroke-width:0.8;" x="405.027429" xlink:href="#mec6a24ae28" y="107.773288"/>
     <use style="fill:#ff7c00;stroke:#ff7c00;stroke-width:0.8;" x="369.759009" xlink:href="#mec6a24ae28" y="131.960759"/>
     <use style="fill:#ff7c00;stroke:#ff7c00;stroke-width:0.8;" x="390.802388" xlink:href="#mec6a24ae28" y="115.593246"/>
     <use style="fill:#ff7c00;stroke:#ff7c00;stroke-width:0.8;" x="362.066907" xlink:href="#mec6a24ae28" y="144.745982"/>
     <use style="fill:#ff7c00;stroke:#ff7c00;stroke-width:0.8;" x="339.590004" xlink:href="#mec6a24ae28" y="131.875736"/>
     <use style="fill:#ff7c00;stroke:#ff7c00;stroke-width:0.8;" x="389.160571" xlink:href="#mec6a24ae28" y="118.034195"/>
     <use style="fill:#ff7c00;stroke:#ff7c00;stroke-width:0.8;" x="384.818095" xlink:href="#mec6a24ae28" y="126.071266"/>
     <use style="fill:#ff7c00;stroke:#ff7c00;stroke-width:0.8;" x="333.186396" xlink:href="#mec6a24ae28" y="169.177417"/>
     <use style="fill:#ff7c00;stroke:#ff7c00;stroke-width:0.8;" x="376.269477" xlink:href="#mec6a24ae28" y="131.547383"/>
     <use style="fill:#ff7c00;stroke:#ff7c00;stroke-width:0.8;" x="338.993741" xlink:href="#mec6a24ae28" y="183.759668"/>
     <use style="fill:#ff7c00;stroke:#ff7c00;stroke-width:0.8;" x="384.279906" xlink:href="#mec6a24ae28" y="102.312408"/>
     <use style="fill:#ff7c00;stroke:#ff7c00;stroke-width:0.8;" x="382.291479" xlink:href="#mec6a24ae28" y="110.049918"/>
     <use style="fill:#ff7c00;stroke:#ff7c00;stroke-width:0.8;" x="338.85109" xlink:href="#mec6a24ae28" y="167.41272"/>
     <use style="fill:#ff7c00;stroke:#ff7c00;stroke-width:0.8;" x="362.775193" xlink:href="#mec6a24ae28" y="112.658083"/>
     <use style="fill:#ff7c00;stroke:#ff7c00;stroke-width:0.8;" x="333.804498" xlink:href="#mec6a24ae28" y="131.781669"/>
     <use style="fill:#ff7c00;stroke:#ff7c00;stroke-width:0.8;" x="329.141863" xlink:href="#mec6a24ae28" y="164.422139"/>
     <use style="fill:#ff7c00;stroke:#ff7c00;stroke-width:0.8;" x="358.276654" xlink:href="#mec6a24ae28" y="124.10333"/>
     <use style="fill:#ff7c00;stroke:#ff7c00;stroke-width:0.8;" x="389.354391" xlink:href="#mec6a24ae28" y="105.277845"/>
     <use style="fill:#ff7c00;stroke:#ff7c00;stroke-width:0.8;" x="339.67324" xlink:href="#mec6a24ae28" y="137.905413"/>
     <use style="fill:#ff7c00;stroke:#ff7c00;stroke-width:0.8;" x="394.691368" xlink:href="#mec6a24ae28" y="133.06993"/>
     <use style="fill:#ff7c00;stroke:#ff7c00;stroke-width:0.8;" x="367.108083" xlink:href="#mec6a24ae28" y="133.541083"/>
     <use style="fill:#ff7c00;stroke:#ff7c00;stroke-width:0.8;" x="335.712381" xlink:href="#mec6a24ae28" y="148.766694"/>
     <use style="fill:#ff7c00;stroke:#ff7c00;stroke-width:0.8;" x="381.578585" xlink:href="#mec6a24ae28" y="114.945251"/>
     <use style="fill:#ff7c00;stroke:#ff7c00;stroke-width:0.8;" x="347.32161" xlink:href="#mec6a24ae28" y="138.824613"/>
     <use style="fill:#ff7c00;stroke:#ff7c00;stroke-width:0.8;" x="322.185459" xlink:href="#mec6a24ae28" y="146.992857"/>
     <use style="fill:#ff7c00;stroke:#ff7c00;stroke-width:0.8;" x="387.633527" xlink:href="#mec6a24ae28" y="127.64026"/>
     <use style="fill:#ff7c00;stroke:#ff7c00;stroke-width:0.8;" x="379.3999" xlink:href="#mec6a24ae28" y="129.944728"/>
     <use style="fill:#ff7c00;stroke:#ff7c00;stroke-width:0.8;" x="372.609774" xlink:href="#mec6a24ae28" y="127.215105"/>
     <use style="fill:#ff7c00;stroke:#ff7c00;stroke-width:0.8;" x="373.058956" xlink:href="#mec6a24ae28" y="127.717707"/>
     <use style="fill:#ff7c00;stroke:#ff7c00;stroke-width:0.8;" x="349.977072" xlink:href="#mec6a24ae28" y="168.82821"/>
     <use style="fill:#ff7c00;stroke:#ff7c00;stroke-width:0.8;" x="370.425577" xlink:href="#mec6a24ae28" y="107.673271"/>
     <use style="fill:#ff7c00;stroke:#ff7c00;stroke-width:0.8;" x="372.501627" xlink:href="#mec6a24ae28" y="108.236366"/>
     <use style="fill:#ff7c00;stroke:#ff7c00;stroke-width:0.8;" x="385.203707" xlink:href="#mec6a24ae28" y="116.001213"/>
     <use style="fill:#ff7c00;stroke:#ff7c00;stroke-width:0.8;" x="371.854823" xlink:href="#mec6a24ae28" y="140.802371"/>
     <use style="fill:#ff7c00;stroke:#ff7c00;stroke-width:0.8;" x="336.022553" xlink:href="#mec6a24ae28" y="164.280776"/>
     <use style="fill:#ff7c00;stroke:#ff7c00;stroke-width:0.8;" x="385.722926" xlink:href="#mec6a24ae28" y="119.199183"/>
     <use style="fill:#ff7c00;stroke:#ff7c00;stroke-width:0.8;" x="390.114532" xlink:href="#mec6a24ae28" y="109.383828"/>
     <use style="fill:#ff7c00;stroke:#ff7c00;stroke-width:0.8;" x="392.753062" xlink:href="#mec6a24ae28" y="123.765259"/>
     <use style="fill:#ff7c00;stroke:#ff7c00;stroke-width:0.8;" x="358.23282" xlink:href="#mec6a24ae28" y="158.261473"/>
     <use style="fill:#ff7c00;stroke:#ff7c00;stroke-width:0.8;" x="350.159152" xlink:href="#mec6a24ae28" y="145.544266"/>
     <use style="fill:#ff7c00;stroke:#ff7c00;stroke-width:0.8;" x="335.963627" xlink:href="#mec6a24ae28" y="158.416876"/>
     <use style="fill:#ff7c00;stroke:#ff7c00;stroke-width:0.8;" x="370.3625" xlink:href="#mec6a24ae28" y="148.413524"/>
     <use style="fill:#ff7c00;stroke:#ff7c00;stroke-width:0.8;" x="362.516285" xlink:href="#mec6a24ae28" y="136.840243"/>
     <use style="fill:#ff7c00;stroke:#ff7c00;stroke-width:0.8;" x="368.566282" xlink:href="#mec6a24ae28" y="135.867294"/>
     <use style="fill:#ff7c00;stroke:#ff7c00;stroke-width:0.8;" x="385.597899" xlink:href="#mec6a24ae28" y="106.913705"/>
    </g>
   </g>
   <g id="PathCollection_3">
    <g clip-path="url(#p81d9b8422f)">
     <use style="fill:#023eff;stroke:#023eff;stroke-width:0.8;" x="255.773244" xlink:href="#mb74edb3b39" y="190.482815"/>
     <use style="fill:#023eff;stroke:#023eff;stroke-width:0.8;" x="302.708391" xlink:href="#mb74edb3b39" y="150.821899"/>
     <use style="fill:#023eff;stroke:#023eff;stroke-width:0.8;" x="262.633702" xlink:href="#mb74edb3b39" y="189.59329"/>
     <use style="fill:#023eff;stroke:#023eff;stroke-width:0.8;" x="292.213111" xlink:href="#mb74edb3b39" y="159.750426"/>
     <use style="fill:#023eff;stroke:#023eff;stroke-width:0.8;" x="301.392932" xlink:href="#mb74edb3b39" y="144.173359"/>
    </g>
   </g>
   <g id="PathCollection_4">
    <g clip-path="url(#p81d9b8422f)">
     <use style="fill:#ff7c00;stroke:#ff7c00;stroke-width:0.8;" x="155.920943" xlink:href="#mec6a24ae28" y="290.649382"/>
     <use style="fill:#ff7c00;stroke:#ff7c00;stroke-width:0.8;" x="131.775802" xlink:href="#mec6a24ae28" y="286.537815"/>
     <use style="fill:#ff7c00;stroke:#ff7c00;stroke-width:0.8;" x="97.231912" xlink:href="#mec6a24ae28" y="322.149917"/>
     <use style="fill:#ff7c00;stroke:#ff7c00;stroke-width:0.8;" x="153.587507" xlink:href="#mec6a24ae28" y="280.007865"/>
     <use style="fill:#ff7c00;stroke:#ff7c00;stroke-width:0.8;" x="125.162424" xlink:href="#mec6a24ae28" y="308.691548"/>
     <use style="fill:#ff7c00;stroke:#ff7c00;stroke-width:0.8;" x="137.349296" xlink:href="#mec6a24ae28" y="281.199046"/>
     <use style="fill:#ff7c00;stroke:#ff7c00;stroke-width:0.8;" x="134.373222" xlink:href="#mec6a24ae28" y="298.603676"/>
     <use style="fill:#ff7c00;stroke:#ff7c00;stroke-width:0.8;" x="150.647411" xlink:href="#mec6a24ae28" y="280.229633"/>
     <use style="fill:#ff7c00;stroke:#ff7c00;stroke-width:0.8;" x="96.462932" xlink:href="#mec6a24ae28" y="319.400669"/>
     <use style="fill:#ff7c00;stroke:#ff7c00;stroke-width:0.8;" x="133.355405" xlink:href="#mec6a24ae28" y="296.52569"/>
     <use style="fill:#ff7c00;stroke:#ff7c00;stroke-width:0.8;" x="110.036446" xlink:href="#mec6a24ae28" y="309.825772"/>
     <use style="fill:#ff7c00;stroke:#ff7c00;stroke-width:0.8;" x="153.95616" xlink:href="#mec6a24ae28" y="279.431717"/>
     <use style="fill:#ff7c00;stroke:#ff7c00;stroke-width:0.8;" x="129.954187" xlink:href="#mec6a24ae28" y="286.860328"/>
     <use style="fill:#ff7c00;stroke:#ff7c00;stroke-width:0.8;" x="103.916417" xlink:href="#mec6a24ae28" y="316.376095"/>
     <use style="fill:#ff7c00;stroke:#ff7c00;stroke-width:0.8;" x="162.777269" xlink:href="#mec6a24ae28" y="275.66088"/>
     <use style="fill:#ff7c00;stroke:#ff7c00;stroke-width:0.8;" x="150.960364" xlink:href="#mec6a24ae28" y="278.518511"/>
     <use style="fill:#ff7c00;stroke:#ff7c00;stroke-width:0.8;" x="90.356695" xlink:href="#mec6a24ae28" y="325.611863"/>
     <use style="fill:#ff7c00;stroke:#ff7c00;stroke-width:0.8;" x="134.795171" xlink:href="#mec6a24ae28" y="286.15041"/>
     <use style="fill:#ff7c00;stroke:#ff7c00;stroke-width:0.8;" x="165.027342" xlink:href="#mec6a24ae28" y="269.683772"/>
     <use style="fill:#ff7c00;stroke:#ff7c00;stroke-width:0.8;" x="141.297957" xlink:href="#mec6a24ae28" y="291.301381"/>
     <use style="fill:#ff7c00;stroke:#ff7c00;stroke-width:0.8;" x="110.582975" xlink:href="#mec6a24ae28" y="306.012721"/>
     <use style="fill:#ff7c00;stroke:#ff7c00;stroke-width:0.8;" x="159.875367" xlink:href="#mec6a24ae28" y="263.344242"/>
     <use style="fill:#ff7c00;stroke:#ff7c00;stroke-width:0.8;" x="123.775265" xlink:href="#mec6a24ae28" y="298.044554"/>
     <use style="fill:#ff7c00;stroke:#ff7c00;stroke-width:0.8;" x="105.307496" xlink:href="#mec6a24ae28" y="325.932696"/>
     <use style="fill:#ff7c00;stroke:#ff7c00;stroke-width:0.8;" x="85.829693" xlink:href="#mec6a24ae28" y="329.708539"/>
     <use style="fill:#ff7c00;stroke:#ff7c00;stroke-width:0.8;" x="91.446176" xlink:href="#mec6a24ae28" y="328.546382"/>
     <use style="fill:#ff7c00;stroke:#ff7c00;stroke-width:0.8;" x="93.019336" xlink:href="#mec6a24ae28" y="317.707291"/>
     <use style="fill:#ff7c00;stroke:#ff7c00;stroke-width:0.8;" x="129.69365" xlink:href="#mec6a24ae28" y="298.102038"/>
     <use style="fill:#ff7c00;stroke:#ff7c00;stroke-width:0.8;" x="158.873158" xlink:href="#mec6a24ae28" y="269.712708"/>
     <use style="fill:#ff7c00;stroke:#ff7c00;stroke-width:0.8;" x="114.745651" xlink:href="#mec6a24ae28" y="315.512002"/>
     <use style="fill:#ff7c00;stroke:#ff7c00;stroke-width:0.8;" x="156.939156" xlink:href="#mec6a24ae28" y="277.964143"/>
     <use style="fill:#ff7c00;stroke:#ff7c00;stroke-width:0.8;" x="155.442225" xlink:href="#mec6a24ae28" y="276.90373"/>
     <use style="fill:#ff7c00;stroke:#ff7c00;stroke-width:0.8;" x="143.88312" xlink:href="#mec6a24ae28" y="277.058377"/>
     <use style="fill:#ff7c00;stroke:#ff7c00;stroke-width:0.8;" x="134.810556" xlink:href="#mec6a24ae28" y="292.055399"/>
     <use style="fill:#ff7c00;stroke:#ff7c00;stroke-width:0.8;" x="93.201273" xlink:href="#mec6a24ae28" y="317.253862"/>
     <use style="fill:#ff7c00;stroke:#ff7c00;stroke-width:0.8;" x="142.919769" xlink:href="#mec6a24ae28" y="296.135587"/>
     <use style="fill:#ff7c00;stroke:#ff7c00;stroke-width:0.8;" x="106.295657" xlink:href="#mec6a24ae28" y="318.230181"/>
     <use style="fill:#ff7c00;stroke:#ff7c00;stroke-width:0.8;" x="97.457682" xlink:href="#mec6a24ae28" y="325.662775"/>
     <use style="fill:#ff7c00;stroke:#ff7c00;stroke-width:0.8;" x="88.291915" xlink:href="#mec6a24ae28" y="334.672866"/>
     <use style="fill:#ff7c00;stroke:#ff7c00;stroke-width:0.8;" x="145.663134" xlink:href="#mec6a24ae28" y="275.02562"/>
     <use style="fill:#ff7c00;stroke:#ff7c00;stroke-width:0.8;" x="128.664235" xlink:href="#mec6a24ae28" y="288.442234"/>
     <use style="fill:#ff7c00;stroke:#ff7c00;stroke-width:0.8;" x="114.763384" xlink:href="#mec6a24ae28" y="320.427878"/>
     <use style="fill:#ff7c00;stroke:#ff7c00;stroke-width:0.8;" x="94.261244" xlink:href="#mec6a24ae28" y="313.75471"/>
     <use style="fill:#ff7c00;stroke:#ff7c00;stroke-width:0.8;" x="139.515874" xlink:href="#mec6a24ae28" y="281.581701"/>
     <use style="fill:#ff7c00;stroke:#ff7c00;stroke-width:0.8;" x="75.281269" xlink:href="#mec6a24ae28" y="328.527961"/>
     <use style="fill:#ff7c00;stroke:#ff7c00;stroke-width:0.8;" x="120.835217" xlink:href="#mec6a24ae28" y="299.405419"/>
     <use style="fill:#ff7c00;stroke:#ff7c00;stroke-width:0.8;" x="144.980564" xlink:href="#mec6a24ae28" y="280.200079"/>
     <use style="fill:#ff7c00;stroke:#ff7c00;stroke-width:0.8;" x="72.777581" xlink:href="#mec6a24ae28" y="336.935195"/>
     <use style="fill:#ff7c00;stroke:#ff7c00;stroke-width:0.8;" x="142.326227" xlink:href="#mec6a24ae28" y="283.977559"/>
     <use style="fill:#ff7c00;stroke:#ff7c00;stroke-width:0.8;" x="149.204024" xlink:href="#mec6a24ae28" y="278.359639"/>
    </g>
   </g>
   <g id="matplotlib.axis_1">
    <g id="xtick_1">
     <g id="line2d_1">
      <defs>
       <path d="M 0 0 
L 0 4.8 
" id="ma75637875b" style="stroke:#000000;"/>
      </defs>
      <g>
       <use style="stroke:#000000;" x="55.140804" xlink:href="#ma75637875b" y="351.76065"/>
      </g>
     </g>
     <g id="text_1">
      <!-- 300 -->
      <g transform="translate(40.863354 371.427912)scale(0.1496 -0.1496)">
       <defs>
        <path d="M 40.578125 39.3125 
Q 47.65625 37.796875 51.625 33 
Q 55.609375 28.21875 55.609375 21.1875 
Q 55.609375 10.40625 48.1875 4.484375 
Q 40.765625 -1.421875 27.09375 -1.421875 
Q 22.515625 -1.421875 17.65625 -0.515625 
Q 12.796875 0.390625 7.625 2.203125 
L 7.625 11.71875 
Q 11.71875 9.328125 16.59375 8.109375 
Q 21.484375 6.890625 26.8125 6.890625 
Q 36.078125 6.890625 40.9375 10.546875 
Q 45.796875 14.203125 45.796875 21.1875 
Q 45.796875 27.640625 41.28125 31.265625 
Q 36.765625 34.90625 28.71875 34.90625 
L 20.21875 34.90625 
L 20.21875 43.015625 
L 29.109375 43.015625 
Q 36.375 43.015625 40.234375 45.921875 
Q 44.09375 48.828125 44.09375 54.296875 
Q 44.09375 59.90625 40.109375 62.90625 
Q 36.140625 65.921875 28.71875 65.921875 
Q 24.65625 65.921875 20.015625 65.03125 
Q 15.375 64.15625 9.8125 62.3125 
L 9.8125 71.09375 
Q 15.4375 72.65625 20.34375 73.4375 
Q 25.25 74.21875 29.59375 74.21875 
Q 40.828125 74.21875 47.359375 69.109375 
Q 53.90625 64.015625 53.90625 55.328125 
Q 53.90625 49.265625 50.4375 45.09375 
Q 46.96875 40.921875 40.578125 39.3125 
z
" id="DejaVuSans-51"/>
        <path d="M 31.78125 66.40625 
Q 24.171875 66.40625 20.328125 58.90625 
Q 16.5 51.421875 16.5 36.375 
Q 16.5 21.390625 20.328125 13.890625 
Q 24.171875 6.390625 31.78125 6.390625 
Q 39.453125 6.390625 43.28125 13.890625 
Q 47.125 21.390625 47.125 36.375 
Q 47.125 51.421875 43.28125 58.90625 
Q 39.453125 66.40625 31.78125 66.40625 
z
M 31.78125 74.21875 
Q 44.046875 74.21875 50.515625 64.515625 
Q 56.984375 54.828125 56.984375 36.375 
Q 56.984375 17.96875 50.515625 8.265625 
Q 44.046875 -1.421875 31.78125 -1.421875 
Q 19.53125 -1.421875 13.0625 8.265625 
Q 6.59375 17.96875 6.59375 36.375 
Q 6.59375 54.828125 13.0625 64.515625 
Q 19.53125 74.21875 31.78125 74.21875 
z
" id="DejaVuSans-48"/>
       </defs>
       <use xlink:href="#DejaVuSans-51"/>
       <use x="63.623047" xlink:href="#DejaVuSans-48"/>
       <use x="127.246094" xlink:href="#DejaVuSans-48"/>
      </g>
     </g>
    </g>
    <g id="xtick_2">
     <g id="line2d_2">
      <g>
       <use style="stroke:#000000;" x="132.453283" xlink:href="#ma75637875b" y="351.76065"/>
      </g>
     </g>
     <g id="text_2">
      <!-- 400 -->
      <g transform="translate(118.175833 371.427912)scale(0.1496 -0.1496)">
       <defs>
        <path d="M 37.796875 64.3125 
L 12.890625 25.390625 
L 37.796875 25.390625 
z
M 35.203125 72.90625 
L 47.609375 72.90625 
L 47.609375 25.390625 
L 58.015625 25.390625 
L 58.015625 17.1875 
L 47.609375 17.1875 
L 47.609375 0 
L 37.796875 0 
L 37.796875 17.1875 
L 4.890625 17.1875 
L 4.890625 26.703125 
z
" id="DejaVuSans-52"/>
       </defs>
       <use xlink:href="#DejaVuSans-52"/>
       <use x="63.623047" xlink:href="#DejaVuSans-48"/>
       <use x="127.246094" xlink:href="#DejaVuSans-48"/>
      </g>
     </g>
    </g>
    <g id="xtick_3">
     <g id="line2d_3">
      <g>
       <use style="stroke:#000000;" x="209.765762" xlink:href="#ma75637875b" y="351.76065"/>
      </g>
     </g>
     <g id="text_3">
      <!-- 500 -->
      <g transform="translate(195.488312 371.427912)scale(0.1496 -0.1496)">
       <defs>
        <path d="M 10.796875 72.90625 
L 49.515625 72.90625 
L 49.515625 64.59375 
L 19.828125 64.59375 
L 19.828125 46.734375 
Q 21.96875 47.46875 24.109375 47.828125 
Q 26.265625 48.1875 28.421875 48.1875 
Q 40.625 48.1875 47.75 41.5 
Q 54.890625 34.8125 54.890625 23.390625 
Q 54.890625 11.625 47.5625 5.09375 
Q 40.234375 -1.421875 26.90625 -1.421875 
Q 22.3125 -1.421875 17.546875 -0.640625 
Q 12.796875 0.140625 7.71875 1.703125 
L 7.71875 11.625 
Q 12.109375 9.234375 16.796875 8.0625 
Q 21.484375 6.890625 26.703125 6.890625 
Q 35.15625 6.890625 40.078125 11.328125 
Q 45.015625 15.765625 45.015625 23.390625 
Q 45.015625 31 40.078125 35.4375 
Q 35.15625 39.890625 26.703125 39.890625 
Q 22.75 39.890625 18.8125 39.015625 
Q 14.890625 38.140625 10.796875 36.28125 
z
" id="DejaVuSans-53"/>
       </defs>
       <use xlink:href="#DejaVuSans-53"/>
       <use x="63.623047" xlink:href="#DejaVuSans-48"/>
       <use x="127.246094" xlink:href="#DejaVuSans-48"/>
      </g>
     </g>
    </g>
    <g id="xtick_4">
     <g id="line2d_4">
      <g>
       <use style="stroke:#000000;" x="287.078242" xlink:href="#ma75637875b" y="351.76065"/>
      </g>
     </g>
     <g id="text_4">
      <!-- 600 -->
      <g transform="translate(272.800792 371.427912)scale(0.1496 -0.1496)">
       <defs>
        <path d="M 33.015625 40.375 
Q 26.375 40.375 22.484375 35.828125 
Q 18.609375 31.296875 18.609375 23.390625 
Q 18.609375 15.53125 22.484375 10.953125 
Q 26.375 6.390625 33.015625 6.390625 
Q 39.65625 6.390625 43.53125 10.953125 
Q 47.40625 15.53125 47.40625 23.390625 
Q 47.40625 31.296875 43.53125 35.828125 
Q 39.65625 40.375 33.015625 40.375 
z
M 52.59375 71.296875 
L 52.59375 62.3125 
Q 48.875 64.0625 45.09375 64.984375 
Q 41.3125 65.921875 37.59375 65.921875 
Q 27.828125 65.921875 22.671875 59.328125 
Q 17.53125 52.734375 16.796875 39.40625 
Q 19.671875 43.65625 24.015625 45.921875 
Q 28.375 48.1875 33.59375 48.1875 
Q 44.578125 48.1875 50.953125 41.515625 
Q 57.328125 34.859375 57.328125 23.390625 
Q 57.328125 12.15625 50.6875 5.359375 
Q 44.046875 -1.421875 33.015625 -1.421875 
Q 20.359375 -1.421875 13.671875 8.265625 
Q 6.984375 17.96875 6.984375 36.375 
Q 6.984375 53.65625 15.1875 63.9375 
Q 23.390625 74.21875 37.203125 74.21875 
Q 40.921875 74.21875 44.703125 73.484375 
Q 48.484375 72.75 52.59375 71.296875 
z
" id="DejaVuSans-54"/>
       </defs>
       <use xlink:href="#DejaVuSans-54"/>
       <use x="63.623047" xlink:href="#DejaVuSans-48"/>
       <use x="127.246094" xlink:href="#DejaVuSans-48"/>
      </g>
     </g>
    </g>
    <g id="xtick_5">
     <g id="line2d_5">
      <g>
       <use style="stroke:#000000;" x="364.390721" xlink:href="#ma75637875b" y="351.76065"/>
      </g>
     </g>
     <g id="text_5">
      <!-- 700 -->
      <g transform="translate(350.113271 371.427912)scale(0.1496 -0.1496)">
       <defs>
        <path d="M 8.203125 72.90625 
L 55.078125 72.90625 
L 55.078125 68.703125 
L 28.609375 0 
L 18.3125 0 
L 43.21875 64.59375 
L 8.203125 64.59375 
z
" id="DejaVuSans-55"/>
       </defs>
       <use xlink:href="#DejaVuSans-55"/>
       <use x="63.623047" xlink:href="#DejaVuSans-48"/>
       <use x="127.246094" xlink:href="#DejaVuSans-48"/>
      </g>
     </g>
    </g>
    <g id="xtick_6">
     <g id="line2d_6">
      <g>
       <use style="stroke:#000000;" x="441.703201" xlink:href="#ma75637875b" y="351.76065"/>
      </g>
     </g>
     <g id="text_6">
      <!-- 800 -->
      <g transform="translate(427.425751 371.427912)scale(0.1496 -0.1496)">
       <defs>
        <path d="M 31.78125 34.625 
Q 24.75 34.625 20.71875 30.859375 
Q 16.703125 27.09375 16.703125 20.515625 
Q 16.703125 13.921875 20.71875 10.15625 
Q 24.75 6.390625 31.78125 6.390625 
Q 38.8125 6.390625 42.859375 10.171875 
Q 46.921875 13.96875 46.921875 20.515625 
Q 46.921875 27.09375 42.890625 30.859375 
Q 38.875 34.625 31.78125 34.625 
z
M 21.921875 38.8125 
Q 15.578125 40.375 12.03125 44.71875 
Q 8.5 49.078125 8.5 55.328125 
Q 8.5 64.0625 14.71875 69.140625 
Q 20.953125 74.21875 31.78125 74.21875 
Q 42.671875 74.21875 48.875 69.140625 
Q 55.078125 64.0625 55.078125 55.328125 
Q 55.078125 49.078125 51.53125 44.71875 
Q 48 40.375 41.703125 38.8125 
Q 48.828125 37.15625 52.796875 32.3125 
Q 56.78125 27.484375 56.78125 20.515625 
Q 56.78125 9.90625 50.3125 4.234375 
Q 43.84375 -1.421875 31.78125 -1.421875 
Q 19.734375 -1.421875 13.25 4.234375 
Q 6.78125 9.90625 6.78125 20.515625 
Q 6.78125 27.484375 10.78125 32.3125 
Q 14.796875 37.15625 21.921875 38.8125 
z
M 18.3125 54.390625 
Q 18.3125 48.734375 21.84375 45.5625 
Q 25.390625 42.390625 31.78125 42.390625 
Q 38.140625 42.390625 41.71875 45.5625 
Q 45.3125 48.734375 45.3125 54.390625 
Q 45.3125 60.0625 41.71875 63.234375 
Q 38.140625 66.40625 31.78125 66.40625 
Q 25.390625 66.40625 21.84375 63.234375 
Q 18.3125 60.0625 18.3125 54.390625 
z
" id="DejaVuSans-56"/>
       </defs>
       <use xlink:href="#DejaVuSans-56"/>
       <use x="63.623047" xlink:href="#DejaVuSans-48"/>
       <use x="127.246094" xlink:href="#DejaVuSans-48"/>
      </g>
     </g>
    </g>
    <g id="text_7">
     <!-- ENEM -->
     <g transform="translate(233.782941 390.939775)scale(0.1632 -0.1632)">
      <defs>
       <path d="M 9.8125 72.90625 
L 55.90625 72.90625 
L 55.90625 64.59375 
L 19.671875 64.59375 
L 19.671875 43.015625 
L 54.390625 43.015625 
L 54.390625 34.71875 
L 19.671875 34.71875 
L 19.671875 8.296875 
L 56.78125 8.296875 
L 56.78125 0 
L 9.8125 0 
z
" id="DejaVuSans-69"/>
       <path d="M 9.8125 72.90625 
L 23.09375 72.90625 
L 55.421875 11.921875 
L 55.421875 72.90625 
L 64.984375 72.90625 
L 64.984375 0 
L 51.703125 0 
L 19.390625 60.984375 
L 19.390625 0 
L 9.8125 0 
z
" id="DejaVuSans-78"/>
       <path d="M 9.8125 72.90625 
L 24.515625 72.90625 
L 43.109375 23.296875 
L 61.8125 72.90625 
L 76.515625 72.90625 
L 76.515625 0 
L 66.890625 0 
L 66.890625 64.015625 
L 48.09375 14.015625 
L 38.1875 14.015625 
L 19.390625 64.015625 
L 19.390625 0 
L 9.8125 0 
z
" id="DejaVuSans-77"/>
      </defs>
      <use xlink:href="#DejaVuSans-69"/>
      <use x="63.183594" xlink:href="#DejaVuSans-78"/>
      <use x="137.988281" xlink:href="#DejaVuSans-69"/>
      <use x="201.171875" xlink:href="#DejaVuSans-77"/>
     </g>
    </g>
   </g>
   <g id="matplotlib.axis_2">
    <g id="ytick_1">
     <g id="line2d_7">
      <defs>
       <path d="M 0 0 
L -4.8 0 
" id="me8e9a8f286" style="stroke:#000000;"/>
      </defs>
      <g>
       <use style="stroke:#000000;" x="54.3313" xlink:href="#me8e9a8f286" y="293.349397"/>
      </g>
     </g>
     <g id="text_8">
      <!-- 20 -->
      <g transform="translate(26.9947 299.033029)scale(0.1496 -0.1496)">
       <defs>
        <path d="M 19.1875 8.296875 
L 53.609375 8.296875 
L 53.609375 0 
L 7.328125 0 
L 7.328125 8.296875 
Q 12.9375 14.109375 22.625 23.890625 
Q 32.328125 33.6875 34.8125 36.53125 
Q 39.546875 41.84375 41.421875 45.53125 
Q 43.3125 49.21875 43.3125 52.78125 
Q 43.3125 58.59375 39.234375 62.25 
Q 35.15625 65.921875 28.609375 65.921875 
Q 23.96875 65.921875 18.8125 64.3125 
Q 13.671875 62.703125 7.8125 59.421875 
L 7.8125 69.390625 
Q 13.765625 71.78125 18.9375 73 
Q 24.125 74.21875 28.421875 74.21875 
Q 39.75 74.21875 46.484375 68.546875 
Q 53.21875 62.890625 53.21875 53.421875 
Q 53.21875 48.921875 51.53125 44.890625 
Q 49.859375 40.875 45.40625 35.40625 
Q 44.1875 33.984375 37.640625 27.21875 
Q 31.109375 20.453125 19.1875 8.296875 
z
" id="DejaVuSans-50"/>
       </defs>
       <use xlink:href="#DejaVuSans-50"/>
       <use x="63.623047" xlink:href="#DejaVuSans-48"/>
      </g>
     </g>
    </g>
    <g id="ytick_2">
     <g id="line2d_8">
      <g>
       <use style="stroke:#000000;" x="54.3313" xlink:href="#me8e9a8f286" y="230.118574"/>
      </g>
     </g>
     <g id="text_9">
      <!-- 30 -->
      <g transform="translate(26.9947 235.802205)scale(0.1496 -0.1496)">
       <use xlink:href="#DejaVuSans-51"/>
       <use x="63.623047" xlink:href="#DejaVuSans-48"/>
      </g>
     </g>
    </g>
    <g id="ytick_3">
     <g id="line2d_9">
      <g>
       <use style="stroke:#000000;" x="54.3313" xlink:href="#me8e9a8f286" y="166.887751"/>
      </g>
     </g>
     <g id="text_10">
      <!-- 40 -->
      <g transform="translate(26.9947 172.571382)scale(0.1496 -0.1496)">
       <use xlink:href="#DejaVuSans-52"/>
       <use x="63.623047" xlink:href="#DejaVuSans-48"/>
      </g>
     </g>
    </g>
    <g id="ytick_4">
     <g id="line2d_10">
      <g>
       <use style="stroke:#000000;" x="54.3313" xlink:href="#me8e9a8f286" y="103.656928"/>
      </g>
     </g>
     <g id="text_11">
      <!-- 50 -->
      <g transform="translate(26.9947 109.340559)scale(0.1496 -0.1496)">
       <use xlink:href="#DejaVuSans-53"/>
       <use x="63.623047" xlink:href="#DejaVuSans-48"/>
      </g>
     </g>
    </g>
    <g id="ytick_5">
     <g id="line2d_11">
      <g>
       <use style="stroke:#000000;" x="54.3313" xlink:href="#me8e9a8f286" y="40.426105"/>
      </g>
     </g>
     <g id="text_12">
      <!-- 60 -->
      <g transform="translate(26.9947 46.109736)scale(0.1496 -0.1496)">
       <use xlink:href="#DejaVuSans-54"/>
       <use x="63.623047" xlink:href="#DejaVuSans-48"/>
      </g>
     </g>
    </g>
    <g id="text_13">
     <!-- ENADE -->
     <g transform="translate(19.60065 216.9627)rotate(-90)scale(0.1632 -0.1632)">
      <defs>
       <path d="M 34.1875 63.1875 
L 20.796875 26.90625 
L 47.609375 26.90625 
z
M 28.609375 72.90625 
L 39.796875 72.90625 
L 67.578125 0 
L 57.328125 0 
L 50.6875 18.703125 
L 17.828125 18.703125 
L 11.1875 0 
L 0.78125 0 
z
" id="DejaVuSans-65"/>
       <path d="M 19.671875 64.796875 
L 19.671875 8.109375 
L 31.59375 8.109375 
Q 46.6875 8.109375 53.6875 14.9375 
Q 60.6875 21.78125 60.6875 36.53125 
Q 60.6875 51.171875 53.6875 57.984375 
Q 46.6875 64.796875 31.59375 64.796875 
z
M 9.8125 72.90625 
L 30.078125 72.90625 
Q 51.265625 72.90625 61.171875 64.09375 
Q 71.09375 55.28125 71.09375 36.53125 
Q 71.09375 17.671875 61.125 8.828125 
Q 51.171875 0 30.078125 0 
L 9.8125 0 
z
" id="DejaVuSans-68"/>
      </defs>
      <use xlink:href="#DejaVuSans-69"/>
      <use x="63.183594" xlink:href="#DejaVuSans-78"/>
      <use x="137.988281" xlink:href="#DejaVuSans-65"/>
      <use x="206.396484" xlink:href="#DejaVuSans-68"/>
      <use x="283.398438" xlink:href="#DejaVuSans-69"/>
     </g>
    </g>
   </g>
   <g id="line2d_12">
    <path clip-path="url(#p81d9b8422f)" d="M 93.797043 324.964809 
L 441.703201 40.426105 
" style="fill:none;stroke:#808080;stroke-linecap:square;stroke-width:2;"/>
   </g>
   <g id="line2d_13">
    <path clip-path="url(#p81d9b8422f)" d="M 132.453283 230.118574 
L 287.078242 103.656928 
" style="fill:none;stroke:#023eff;stroke-dasharray:4.44,1.92;stroke-dashoffset:0;stroke-width:1.2;"/>
   </g>
   <g id="line2d_14">
    <path clip-path="url(#p81d9b8422f)" d="M 287.078242 198.503162 
L 403.046961 103.656928 
" style="fill:none;stroke:#ff7c00;stroke-dasharray:4.44,1.92;stroke-dashoffset:0;stroke-width:1.2;"/>
   </g>
   <g id="patch_3">
    <path d="M 54.3313 351.76065 
L 54.3313 25.60065 
" style="fill:none;stroke:#000000;stroke-linecap:square;stroke-linejoin:miter;"/>
   </g>
   <g id="patch_4">
    <path d="M 54.3313 351.76065 
L 460.149482 351.76065 
" style="fill:none;stroke:#000000;stroke-linecap:square;stroke-linejoin:miter;"/>
   </g>
   <g id="patch_5">
    <path d="M 209.765762 172.244831 
Q 209.765762 198.504991 209.765762 224.76515 
" style="fill:none;stroke:#023eff;stroke-linecap:round;stroke-width:3;"/>
    <path d="M 206.501762 178.772831 
L 209.765762 172.244831 
L 213.029762 178.772831 
" style="fill:none;stroke:#023eff;stroke-linecap:round;stroke-width:3;"/>
    <path d="M 213.029762 218.23715 
L 209.765762 224.76515 
L 206.501762 218.23715 
" style="fill:none;stroke:#023eff;stroke-linecap:round;stroke-width:3;"/>
   </g>
   <g id="text_14">
    <!-- Simulated data -->
    <g transform="translate(195.031866 19.60065)scale(0.1632 -0.1632)">
     <defs>
      <path d="M 53.515625 70.515625 
L 53.515625 60.890625 
Q 47.90625 63.578125 42.921875 64.890625 
Q 37.9375 66.21875 33.296875 66.21875 
Q 25.25 66.21875 20.875 63.09375 
Q 16.5 59.96875 16.5 54.203125 
Q 16.5 49.359375 19.40625 46.890625 
Q 22.3125 44.4375 30.421875 42.921875 
L 36.375 41.703125 
Q 47.40625 39.59375 52.65625 34.296875 
Q 57.90625 29 57.90625 20.125 
Q 57.90625 9.515625 50.796875 4.046875 
Q 43.703125 -1.421875 29.984375 -1.421875 
Q 24.8125 -1.421875 18.96875 -0.25 
Q 13.140625 0.921875 6.890625 3.21875 
L 6.890625 13.375 
Q 12.890625 10.015625 18.65625 8.296875 
Q 24.421875 6.59375 29.984375 6.59375 
Q 38.421875 6.59375 43.015625 9.90625 
Q 47.609375 13.234375 47.609375 19.390625 
Q 47.609375 24.75 44.3125 27.78125 
Q 41.015625 30.8125 33.5 32.328125 
L 27.484375 33.5 
Q 16.453125 35.6875 11.515625 40.375 
Q 6.59375 45.0625 6.59375 53.421875 
Q 6.59375 63.09375 13.40625 68.65625 
Q 20.21875 74.21875 32.171875 74.21875 
Q 37.3125 74.21875 42.625 73.28125 
Q 47.953125 72.359375 53.515625 70.515625 
z
" id="DejaVuSans-83"/>
      <path d="M 9.421875 54.6875 
L 18.40625 54.6875 
L 18.40625 0 
L 9.421875 0 
z
M 9.421875 75.984375 
L 18.40625 75.984375 
L 18.40625 64.59375 
L 9.421875 64.59375 
z
" id="DejaVuSans-105"/>
      <path d="M 52 44.1875 
Q 55.375 50.25 60.0625 53.125 
Q 64.75 56 71.09375 56 
Q 79.640625 56 84.28125 50.015625 
Q 88.921875 44.046875 88.921875 33.015625 
L 88.921875 0 
L 79.890625 0 
L 79.890625 32.71875 
Q 79.890625 40.578125 77.09375 44.375 
Q 74.3125 48.1875 68.609375 48.1875 
Q 61.625 48.1875 57.5625 43.546875 
Q 53.515625 38.921875 53.515625 30.90625 
L 53.515625 0 
L 44.484375 0 
L 44.484375 32.71875 
Q 44.484375 40.625 41.703125 44.40625 
Q 38.921875 48.1875 33.109375 48.1875 
Q 26.21875 48.1875 22.15625 43.53125 
Q 18.109375 38.875 18.109375 30.90625 
L 18.109375 0 
L 9.078125 0 
L 9.078125 54.6875 
L 18.109375 54.6875 
L 18.109375 46.1875 
Q 21.1875 51.21875 25.484375 53.609375 
Q 29.78125 56 35.6875 56 
Q 41.65625 56 45.828125 52.96875 
Q 50 49.953125 52 44.1875 
z
" id="DejaVuSans-109"/>
      <path d="M 8.5 21.578125 
L 8.5 54.6875 
L 17.484375 54.6875 
L 17.484375 21.921875 
Q 17.484375 14.15625 20.5 10.265625 
Q 23.53125 6.390625 29.59375 6.390625 
Q 36.859375 6.390625 41.078125 11.03125 
Q 45.3125 15.671875 45.3125 23.6875 
L 45.3125 54.6875 
L 54.296875 54.6875 
L 54.296875 0 
L 45.3125 0 
L 45.3125 8.40625 
Q 42.046875 3.421875 37.71875 1 
Q 33.40625 -1.421875 27.6875 -1.421875 
Q 18.265625 -1.421875 13.375 4.4375 
Q 8.5 10.296875 8.5 21.578125 
z
M 31.109375 56 
z
" id="DejaVuSans-117"/>
      <path d="M 9.421875 75.984375 
L 18.40625 75.984375 
L 18.40625 0 
L 9.421875 0 
z
" id="DejaVuSans-108"/>
      <path d="M 34.28125 27.484375 
Q 23.390625 27.484375 19.1875 25 
Q 14.984375 22.515625 14.984375 16.5 
Q 14.984375 11.71875 18.140625 8.90625 
Q 21.296875 6.109375 26.703125 6.109375 
Q 34.1875 6.109375 38.703125 11.40625 
Q 43.21875 16.703125 43.21875 25.484375 
L 43.21875 27.484375 
z
M 52.203125 31.203125 
L 52.203125 0 
L 43.21875 0 
L 43.21875 8.296875 
Q 40.140625 3.328125 35.546875 0.953125 
Q 30.953125 -1.421875 24.3125 -1.421875 
Q 15.921875 -1.421875 10.953125 3.296875 
Q 6 8.015625 6 15.921875 
Q 6 25.140625 12.171875 29.828125 
Q 18.359375 34.515625 30.609375 34.515625 
L 43.21875 34.515625 
L 43.21875 35.40625 
Q 43.21875 41.609375 39.140625 45 
Q 35.0625 48.390625 27.6875 48.390625 
Q 23 48.390625 18.546875 47.265625 
Q 14.109375 46.140625 10.015625 43.890625 
L 10.015625 52.203125 
Q 14.9375 54.109375 19.578125 55.046875 
Q 24.21875 56 28.609375 56 
Q 40.484375 56 46.34375 49.84375 
Q 52.203125 43.703125 52.203125 31.203125 
z
" id="DejaVuSans-97"/>
      <path d="M 18.3125 70.21875 
L 18.3125 54.6875 
L 36.8125 54.6875 
L 36.8125 47.703125 
L 18.3125 47.703125 
L 18.3125 18.015625 
Q 18.3125 11.328125 20.140625 9.421875 
Q 21.96875 7.515625 27.59375 7.515625 
L 36.8125 7.515625 
L 36.8125 0 
L 27.59375 0 
Q 17.1875 0 13.234375 3.875 
Q 9.28125 7.765625 9.28125 18.015625 
L 9.28125 47.703125 
L 2.6875 47.703125 
L 2.6875 54.6875 
L 9.28125 54.6875 
L 9.28125 70.21875 
z
" id="DejaVuSans-116"/>
      <path d="M 56.203125 29.59375 
L 56.203125 25.203125 
L 14.890625 25.203125 
Q 15.484375 15.921875 20.484375 11.0625 
Q 25.484375 6.203125 34.421875 6.203125 
Q 39.59375 6.203125 44.453125 7.46875 
Q 49.3125 8.734375 54.109375 11.28125 
L 54.109375 2.78125 
Q 49.265625 0.734375 44.1875 -0.34375 
Q 39.109375 -1.421875 33.890625 -1.421875 
Q 20.796875 -1.421875 13.15625 6.1875 
Q 5.515625 13.8125 5.515625 26.8125 
Q 5.515625 40.234375 12.765625 48.109375 
Q 20.015625 56 32.328125 56 
Q 43.359375 56 49.78125 48.890625 
Q 56.203125 41.796875 56.203125 29.59375 
z
M 47.21875 32.234375 
Q 47.125 39.59375 43.09375 43.984375 
Q 39.0625 48.390625 32.421875 48.390625 
Q 24.90625 48.390625 20.390625 44.140625 
Q 15.875 39.890625 15.1875 32.171875 
z
" id="DejaVuSans-101"/>
      <path d="M 45.40625 46.390625 
L 45.40625 75.984375 
L 54.390625 75.984375 
L 54.390625 0 
L 45.40625 0 
L 45.40625 8.203125 
Q 42.578125 3.328125 38.25 0.953125 
Q 33.9375 -1.421875 27.875 -1.421875 
Q 17.96875 -1.421875 11.734375 6.484375 
Q 5.515625 14.40625 5.515625 27.296875 
Q 5.515625 40.1875 11.734375 48.09375 
Q 17.96875 56 27.875 56 
Q 33.9375 56 38.25 53.625 
Q 42.578125 51.265625 45.40625 46.390625 
z
M 14.796875 27.296875 
Q 14.796875 17.390625 18.875 11.75 
Q 22.953125 6.109375 30.078125 6.109375 
Q 37.203125 6.109375 41.296875 11.75 
Q 45.40625 17.390625 45.40625 27.296875 
Q 45.40625 37.203125 41.296875 42.84375 
Q 37.203125 48.484375 30.078125 48.484375 
Q 22.953125 48.484375 18.875 42.84375 
Q 14.796875 37.203125 14.796875 27.296875 
z
" id="DejaVuSans-100"/>
      <path id="DejaVuSans-32"/>
     </defs>
     <use xlink:href="#DejaVuSans-83"/>
     <use x="63.476562" xlink:href="#DejaVuSans-105"/>
     <use x="91.259766" xlink:href="#DejaVuSans-109"/>
     <use x="188.671875" xlink:href="#DejaVuSans-117"/>
     <use x="252.050781" xlink:href="#DejaVuSans-108"/>
     <use x="279.833984" xlink:href="#DejaVuSans-97"/>
     <use x="341.113281" xlink:href="#DejaVuSans-116"/>
     <use x="380.322266" xlink:href="#DejaVuSans-101"/>
     <use x="441.845703" xlink:href="#DejaVuSans-100"/>
     <use x="505.322266" xlink:href="#DejaVuSans-32"/>
     <use x="537.109375" xlink:href="#DejaVuSans-100"/>
     <use x="600.585938" xlink:href="#DejaVuSans-97"/>
     <use x="661.865234" xlink:href="#DejaVuSans-116"/>
     <use x="701.074219" xlink:href="#DejaVuSans-97"/>
    </g>
   </g>
   <g id="legend_1">
    <g id="patch_6">
     <path d="M 64.8033 125.40255 
L 257.504463 125.40255 
Q 260.496463 125.40255 260.496463 122.41055 
L 260.496463 36.07265 
Q 260.496463 33.08065 257.504463 33.08065 
L 64.8033 33.08065 
Q 61.8113 33.08065 61.8113 36.07265 
L 61.8113 122.41055 
Q 61.8113 125.40255 64.8033 125.40255 
z
" style="fill:#ffffff;opacity:0.8;stroke:#cccccc;stroke-linejoin:miter;stroke-width:0.8;"/>
    </g>
    <g id="PathCollection_5">
     <g>
      <use style="fill:#023eff;stroke:#023eff;stroke-width:0.8;" x="82.7553" xlink:href="#mb74edb3b39" y="46.504913"/>
     </g>
    </g>
    <g id="text_15">
     <!-- Course 1: IDD = 10 -->
     <g transform="translate(109.6833 50.431913)scale(0.1496 -0.1496)">
      <defs>
       <path d="M 64.40625 67.28125 
L 64.40625 56.890625 
Q 59.421875 61.53125 53.78125 63.8125 
Q 48.140625 66.109375 41.796875 66.109375 
Q 29.296875 66.109375 22.65625 58.46875 
Q 16.015625 50.828125 16.015625 36.375 
Q 16.015625 21.96875 22.65625 14.328125 
Q 29.296875 6.6875 41.796875 6.6875 
Q 48.140625 6.6875 53.78125 8.984375 
Q 59.421875 11.28125 64.40625 15.921875 
L 64.40625 5.609375 
Q 59.234375 2.09375 53.4375 0.328125 
Q 47.65625 -1.421875 41.21875 -1.421875 
Q 24.65625 -1.421875 15.125 8.703125 
Q 5.609375 18.84375 5.609375 36.375 
Q 5.609375 53.953125 15.125 64.078125 
Q 24.65625 74.21875 41.21875 74.21875 
Q 47.75 74.21875 53.53125 72.484375 
Q 59.328125 70.75 64.40625 67.28125 
z
" id="DejaVuSans-67"/>
       <path d="M 30.609375 48.390625 
Q 23.390625 48.390625 19.1875 42.75 
Q 14.984375 37.109375 14.984375 27.296875 
Q 14.984375 17.484375 19.15625 11.84375 
Q 23.34375 6.203125 30.609375 6.203125 
Q 37.796875 6.203125 41.984375 11.859375 
Q 46.1875 17.53125 46.1875 27.296875 
Q 46.1875 37.015625 41.984375 42.703125 
Q 37.796875 48.390625 30.609375 48.390625 
z
M 30.609375 56 
Q 42.328125 56 49.015625 48.375 
Q 55.71875 40.765625 55.71875 27.296875 
Q 55.71875 13.875 49.015625 6.21875 
Q 42.328125 -1.421875 30.609375 -1.421875 
Q 18.84375 -1.421875 12.171875 6.21875 
Q 5.515625 13.875 5.515625 27.296875 
Q 5.515625 40.765625 12.171875 48.375 
Q 18.84375 56 30.609375 56 
z
" id="DejaVuSans-111"/>
       <path d="M 41.109375 46.296875 
Q 39.59375 47.171875 37.8125 47.578125 
Q 36.03125 48 33.890625 48 
Q 26.265625 48 22.1875 43.046875 
Q 18.109375 38.09375 18.109375 28.8125 
L 18.109375 0 
L 9.078125 0 
L 9.078125 54.6875 
L 18.109375 54.6875 
L 18.109375 46.1875 
Q 20.953125 51.171875 25.484375 53.578125 
Q 30.03125 56 36.53125 56 
Q 37.453125 56 38.578125 55.875 
Q 39.703125 55.765625 41.0625 55.515625 
z
" id="DejaVuSans-114"/>
       <path d="M 44.28125 53.078125 
L 44.28125 44.578125 
Q 40.484375 46.53125 36.375 47.5 
Q 32.28125 48.484375 27.875 48.484375 
Q 21.1875 48.484375 17.84375 46.4375 
Q 14.5 44.390625 14.5 40.28125 
Q 14.5 37.15625 16.890625 35.375 
Q 19.28125 33.59375 26.515625 31.984375 
L 29.59375 31.296875 
Q 39.15625 29.25 43.1875 25.515625 
Q 47.21875 21.78125 47.21875 15.09375 
Q 47.21875 7.46875 41.1875 3.015625 
Q 35.15625 -1.421875 24.609375 -1.421875 
Q 20.21875 -1.421875 15.453125 -0.5625 
Q 10.6875 0.296875 5.421875 2 
L 5.421875 11.28125 
Q 10.40625 8.6875 15.234375 7.390625 
Q 20.0625 6.109375 24.8125 6.109375 
Q 31.15625 6.109375 34.5625 8.28125 
Q 37.984375 10.453125 37.984375 14.40625 
Q 37.984375 18.0625 35.515625 20.015625 
Q 33.0625 21.96875 24.703125 23.78125 
L 21.578125 24.515625 
Q 13.234375 26.265625 9.515625 29.90625 
Q 5.8125 33.546875 5.8125 39.890625 
Q 5.8125 47.609375 11.28125 51.796875 
Q 16.75 56 26.8125 56 
Q 31.78125 56 36.171875 55.265625 
Q 40.578125 54.546875 44.28125 53.078125 
z
" id="DejaVuSans-115"/>
       <path d="M 12.40625 8.296875 
L 28.515625 8.296875 
L 28.515625 63.921875 
L 10.984375 60.40625 
L 10.984375 69.390625 
L 28.421875 72.90625 
L 38.28125 72.90625 
L 38.28125 8.296875 
L 54.390625 8.296875 
L 54.390625 0 
L 12.40625 0 
z
" id="DejaVuSans-49"/>
       <path d="M 11.71875 12.40625 
L 22.015625 12.40625 
L 22.015625 0 
L 11.71875 0 
z
M 11.71875 51.703125 
L 22.015625 51.703125 
L 22.015625 39.3125 
L 11.71875 39.3125 
z
" id="DejaVuSans-58"/>
       <path d="M 9.8125 72.90625 
L 19.671875 72.90625 
L 19.671875 0 
L 9.8125 0 
z
" id="DejaVuSans-73"/>
       <path d="M 10.59375 45.40625 
L 73.1875 45.40625 
L 73.1875 37.203125 
L 10.59375 37.203125 
z
M 10.59375 25.484375 
L 73.1875 25.484375 
L 73.1875 17.1875 
L 10.59375 17.1875 
z
" id="DejaVuSans-61"/>
      </defs>
      <use xlink:href="#DejaVuSans-67"/>
      <use x="69.824219" xlink:href="#DejaVuSans-111"/>
      <use x="131.005859" xlink:href="#DejaVuSans-117"/>
      <use x="194.384766" xlink:href="#DejaVuSans-114"/>
      <use x="235.498047" xlink:href="#DejaVuSans-115"/>
      <use x="287.597656" xlink:href="#DejaVuSans-101"/>
      <use x="349.121094" xlink:href="#DejaVuSans-32"/>
      <use x="380.908203" xlink:href="#DejaVuSans-49"/>
      <use x="444.53125" xlink:href="#DejaVuSans-58"/>
      <use x="478.222656" xlink:href="#DejaVuSans-32"/>
      <use x="510.009766" xlink:href="#DejaVuSans-73"/>
      <use x="539.501953" xlink:href="#DejaVuSans-68"/>
      <use x="616.503906" xlink:href="#DejaVuSans-68"/>
      <use x="693.505859" xlink:href="#DejaVuSans-32"/>
      <use x="725.292969" xlink:href="#DejaVuSans-61"/>
      <use x="809.082031" xlink:href="#DejaVuSans-32"/>
      <use x="840.869141" xlink:href="#DejaVuSans-49"/>
      <use x="904.492188" xlink:href="#DejaVuSans-48"/>
     </g>
    </g>
    <g id="PathCollection_6">
     <g>
      <use style="fill:#ff7c00;stroke:#ff7c00;stroke-width:0.8;" x="82.7553" xlink:href="#mec6a24ae28" y="68.463388"/>
     </g>
    </g>
    <g id="text_16">
     <!-- Course 2: IDD = -5 -->
     <g transform="translate(109.6833 72.390388)scale(0.1496 -0.1496)">
      <defs>
       <path d="M 4.890625 31.390625 
L 31.203125 31.390625 
L 31.203125 23.390625 
L 4.890625 23.390625 
z
" id="DejaVuSans-45"/>
      </defs>
      <use xlink:href="#DejaVuSans-67"/>
      <use x="69.824219" xlink:href="#DejaVuSans-111"/>
      <use x="131.005859" xlink:href="#DejaVuSans-117"/>
      <use x="194.384766" xlink:href="#DejaVuSans-114"/>
      <use x="235.498047" xlink:href="#DejaVuSans-115"/>
      <use x="287.597656" xlink:href="#DejaVuSans-101"/>
      <use x="349.121094" xlink:href="#DejaVuSans-32"/>
      <use x="380.908203" xlink:href="#DejaVuSans-50"/>
      <use x="444.53125" xlink:href="#DejaVuSans-58"/>
      <use x="478.222656" xlink:href="#DejaVuSans-32"/>
      <use x="510.009766" xlink:href="#DejaVuSans-73"/>
      <use x="539.501953" xlink:href="#DejaVuSans-68"/>
      <use x="616.503906" xlink:href="#DejaVuSans-68"/>
      <use x="693.505859" xlink:href="#DejaVuSans-32"/>
      <use x="725.292969" xlink:href="#DejaVuSans-61"/>
      <use x="809.082031" xlink:href="#DejaVuSans-32"/>
      <use x="840.869141" xlink:href="#DejaVuSans-45"/>
      <use x="876.953125" xlink:href="#DejaVuSans-53"/>
     </g>
    </g>
    <g id="PathCollection_7">
     <g>
      <use style="fill:#023eff;stroke:#023eff;stroke-width:0.8;" x="82.7553" xlink:href="#mb74edb3b39" y="90.421863"/>
     </g>
    </g>
    <g id="text_17">
     <!-- Course 3: IDD = 0 -->
     <g transform="translate(109.6833 94.348862)scale(0.1496 -0.1496)">
      <use xlink:href="#DejaVuSans-67"/>
      <use x="69.824219" xlink:href="#DejaVuSans-111"/>
      <use x="131.005859" xlink:href="#DejaVuSans-117"/>
      <use x="194.384766" xlink:href="#DejaVuSans-114"/>
      <use x="235.498047" xlink:href="#DejaVuSans-115"/>
      <use x="287.597656" xlink:href="#DejaVuSans-101"/>
      <use x="349.121094" xlink:href="#DejaVuSans-32"/>
      <use x="380.908203" xlink:href="#DejaVuSans-51"/>
      <use x="444.53125" xlink:href="#DejaVuSans-58"/>
      <use x="478.222656" xlink:href="#DejaVuSans-32"/>
      <use x="510.009766" xlink:href="#DejaVuSans-73"/>
      <use x="539.501953" xlink:href="#DejaVuSans-68"/>
      <use x="616.503906" xlink:href="#DejaVuSans-68"/>
      <use x="693.505859" xlink:href="#DejaVuSans-32"/>
      <use x="725.292969" xlink:href="#DejaVuSans-61"/>
      <use x="809.082031" xlink:href="#DejaVuSans-32"/>
      <use x="840.869141" xlink:href="#DejaVuSans-48"/>
     </g>
    </g>
    <g id="PathCollection_8">
     <g>
      <use style="fill:#ff7c00;stroke:#ff7c00;stroke-width:0.8;" x="82.7553" xlink:href="#mec6a24ae28" y="112.380338"/>
     </g>
    </g>
    <g id="text_18">
     <!-- Course 4: IDD = 0 -->
     <g transform="translate(109.6833 116.307338)scale(0.1496 -0.1496)">
      <use xlink:href="#DejaVuSans-67"/>
      <use x="69.824219" xlink:href="#DejaVuSans-111"/>
      <use x="131.005859" xlink:href="#DejaVuSans-117"/>
      <use x="194.384766" xlink:href="#DejaVuSans-114"/>
      <use x="235.498047" xlink:href="#DejaVuSans-115"/>
      <use x="287.597656" xlink:href="#DejaVuSans-101"/>
      <use x="349.121094" xlink:href="#DejaVuSans-32"/>
      <use x="380.908203" xlink:href="#DejaVuSans-52"/>
      <use x="444.53125" xlink:href="#DejaVuSans-58"/>
      <use x="478.222656" xlink:href="#DejaVuSans-32"/>
      <use x="510.009766" xlink:href="#DejaVuSans-73"/>
      <use x="539.501953" xlink:href="#DejaVuSans-68"/>
      <use x="616.503906" xlink:href="#DejaVuSans-68"/>
      <use x="693.505859" xlink:href="#DejaVuSans-32"/>
      <use x="725.292969" xlink:href="#DejaVuSans-61"/>
      <use x="809.082031" xlink:href="#DejaVuSans-32"/>
      <use x="840.869141" xlink:href="#DejaVuSans-48"/>
     </g>
    </g>
   </g>
  </g>
  <g id="axes_2">
   <g id="patch_7">
    <path d="M 541.313118 351.76065 
L 947.1313 351.76065 
L 947.1313 25.60065 
L 541.313118 25.60065 
z
" style="fill:#ffffff;"/>
   </g>
   <g id="PathCollection_9">
    <defs>
     <path d="M 0 3.535534 
C 0.937635 3.535534 1.836992 3.163008 2.5 2.5 
C 3.163008 1.836992 3.535534 0.937635 3.535534 -0 
C 3.535534 -0.937635 3.163008 -1.836992 2.5 -2.5 
C 1.836992 -3.163008 0.937635 -3.535534 0 -3.535534 
C -0.937635 -3.535534 -1.836992 -3.163008 -2.5 -2.5 
C -3.163008 -1.836992 -3.535534 -0.937635 -3.535534 0 
C -3.535534 0.937635 -3.163008 1.836992 -2.5 2.5 
C -1.836992 3.163008 -0.937635 3.535534 0 3.535534 
z
" id="C0_0_4a9d10f900"/>
    </defs>
    <g clip-path="url(#p7575542a56)">
     <use style="fill:#023eff;stroke:#ffffff;stroke-width:0.565685;" x="690.343717" xlink:href="#C0_0_4a9d10f900" y="130.31432"/>
    </g>
    <g clip-path="url(#p7575542a56)">
     <use style="fill:#023eff;stroke:#ffffff;stroke-width:0.565685;" x="799.994672" xlink:href="#C0_0_4a9d10f900" y="110.384354"/>
    </g>
    <g clip-path="url(#p7575542a56)">
     <use style="fill:#023eff;stroke:#ffffff;stroke-width:0.565685;" x="798.864935" xlink:href="#C0_0_4a9d10f900" y="134.38166"/>
    </g>
    <g clip-path="url(#p7575542a56)">
     <use style="fill:#023eff;stroke:#ffffff;stroke-width:0.565685;" x="790.192541" xlink:href="#C0_0_4a9d10f900" y="55.475263"/>
    </g>
    <g clip-path="url(#p7575542a56)">
     <use style="fill:#023eff;stroke:#ffffff;stroke-width:0.565685;" x="849.968925" xlink:href="#C0_0_4a9d10f900" y="157.565498"/>
    </g>
    <g clip-path="url(#p7575542a56)">
     <use style="fill:#023eff;stroke:#ffffff;stroke-width:0.565685;" x="908.615572" xlink:href="#C0_0_4a9d10f900" y="124.620044"/>
    </g>
    <g clip-path="url(#p7575542a56)">
     <use style="fill:#023eff;stroke:#ffffff;stroke-width:0.565685;" x="808.899658" xlink:href="#C0_0_4a9d10f900" y="172.207923"/>
    </g>
    <g clip-path="url(#p7575542a56)">
     <use style="fill:#023eff;stroke:#ffffff;stroke-width:0.565685;" x="784.444173" xlink:href="#C0_0_4a9d10f900" y="165.700179"/>
    </g>
    <g clip-path="url(#p7575542a56)">
     <use style="fill:#023eff;stroke:#ffffff;stroke-width:0.565685;" x="928.685019" xlink:href="#C0_0_4a9d10f900" y="55.068529"/>
    </g>
    <g clip-path="url(#p7575542a56)">
     <use style="fill:#023eff;stroke:#ffffff;stroke-width:0.565685;" x="735.699339" xlink:href="#C0_0_4a9d10f900" y="110.384354"/>
    </g>
    <g clip-path="url(#p7575542a56)">
     <use style="fill:#023eff;stroke:#ffffff;stroke-width:0.565685;" x="858.674546" xlink:href="#C0_0_4a9d10f900" y="116.892098"/>
    </g>
    <g clip-path="url(#p7575542a56)">
     <use style="fill:#023eff;stroke:#ffffff;stroke-width:0.565685;" x="796.505778" xlink:href="#C0_0_4a9d10f900" y="136.008596"/>
    </g>
    <g clip-path="url(#p7575542a56)">
     <use style="fill:#023eff;stroke:#ffffff;stroke-width:0.565685;" x="665.290136" xlink:href="#C0_0_4a9d10f900" y="162.039573"/>
    </g>
    <g clip-path="url(#p7575542a56)">
     <use style="fill:#023eff;stroke:#ffffff;stroke-width:0.565685;" x="718.487462" xlink:href="#C0_0_4a9d10f900" y="251.521054"/>
    </g>
    <g clip-path="url(#p7575542a56)">
     <use style="fill:#023eff;stroke:#ffffff;stroke-width:0.565685;" x="651.101967" xlink:href="#C0_0_4a9d10f900" y="220.202536"/>
    </g>
    <g clip-path="url(#p7575542a56)">
     <use style="fill:#023eff;stroke:#ffffff;stroke-width:0.565685;" x="712.639411" xlink:href="#C0_0_4a9d10f900" y="192.951357"/>
    </g>
    <g clip-path="url(#p7575542a56)">
     <use style="fill:#023eff;stroke:#ffffff;stroke-width:0.565685;" x="842.393041" xlink:href="#C0_0_4a9d10f900" y="40.426105"/>
    </g>
    <g clip-path="url(#p7575542a56)">
     <use style="fill:#023eff;stroke:#ffffff;stroke-width:0.565685;" x="832.657365" xlink:href="#C0_0_4a9d10f900" y="133.161458"/>
    </g>
    <g clip-path="url(#p7575542a56)">
     <use style="fill:#023eff;stroke:#ffffff;stroke-width:0.565685;" x="743.109086" xlink:href="#C0_0_4a9d10f900" y="157.972232"/>
    </g>
    <g clip-path="url(#p7575542a56)">
     <use style="fill:#023eff;stroke:#ffffff;stroke-width:0.565685;" x="738.82273" xlink:href="#C0_0_4a9d10f900" y="180.342603"/>
    </g>
    <g clip-path="url(#p7575542a56)">
     <use style="fill:#023eff;stroke:#ffffff;stroke-width:0.565685;" x="803.051607" xlink:href="#C0_0_4a9d10f900" y="165.700179"/>
    </g>
    <g clip-path="url(#p7575542a56)">
     <use style="fill:#023eff;stroke:#ffffff;stroke-width:0.565685;" x="688.615884" xlink:href="#C0_0_4a9d10f900" y="131.534522"/>
    </g>
    <g clip-path="url(#p7575542a56)">
     <use style="fill:#023eff;stroke:#ffffff;stroke-width:0.565685;" x="827.108362" xlink:href="#C0_0_4a9d10f900" y="126.653714"/>
    </g>
    <g clip-path="url(#p7575542a56)">
     <use style="fill:#023eff;stroke:#ffffff;stroke-width:0.565685;" x="682.867516" xlink:href="#C0_0_4a9d10f900" y="135.195128"/>
    </g>
    <g clip-path="url(#p7575542a56)">
     <use style="fill:#023eff;stroke:#ffffff;stroke-width:0.565685;" x="750.917563" xlink:href="#C0_0_4a9d10f900" y="112.418024"/>
    </g>
    <g clip-path="url(#p7575542a56)">
     <use style="fill:#023eff;stroke:#ffffff;stroke-width:0.565685;" x="702.737598" xlink:href="#C0_0_4a9d10f900" y="153.904892"/>
    </g>
    <g clip-path="url(#p7575542a56)">
     <use style="fill:#023eff;stroke:#ffffff;stroke-width:0.565685;" x="759.157998" xlink:href="#C0_0_4a9d10f900" y="162.853041"/>
    </g>
    <g clip-path="url(#p7575542a56)">
     <use style="fill:#023eff;stroke:#ffffff;stroke-width:0.565685;" x="749.721371" xlink:href="#C0_0_4a9d10f900" y="128.28065"/>
    </g>
    <g clip-path="url(#p7575542a56)">
     <use style="fill:#023eff;stroke:#ffffff;stroke-width:0.565685;" x="799.230438" xlink:href="#C0_0_4a9d10f900" y="165.700179"/>
    </g>
    <g clip-path="url(#p7575542a56)">
     <use style="fill:#023eff;stroke:#ffffff;stroke-width:0.565685;" x="781.952106" xlink:href="#C0_0_4a9d10f900" y="112.01129"/>
    </g>
    <g clip-path="url(#p7575542a56)">
     <use style="fill:#023eff;stroke:#ffffff;stroke-width:0.565685;" x="752.977672" xlink:href="#C0_0_4a9d10f900" y="90.454387"/>
    </g>
    <g clip-path="url(#p7575542a56)">
     <use style="fill:#023eff;stroke:#ffffff;stroke-width:0.565685;" x="810.062623" xlink:href="#C0_0_4a9d10f900" y="125.840246"/>
    </g>
    <g clip-path="url(#p7575542a56)">
     <use style="fill:#023eff;stroke:#ffffff;stroke-width:0.565685;" x="925.162897" xlink:href="#C0_0_4a9d10f900" y="102.656408"/>
    </g>
    <g clip-path="url(#p7575542a56)">
     <use style="fill:#023eff;stroke:#ffffff;stroke-width:0.565685;" x="851.829668" xlink:href="#C0_0_4a9d10f900" y="112.418024"/>
    </g>
    <g clip-path="url(#p7575542a56)">
     <use style="fill:#ff7c00;stroke:#ffffff;stroke-width:0.565685;" x="821.659042" xlink:href="#C0_0_4a9d10f900" y="245.826778"/>
    </g>
    <g clip-path="url(#p7575542a56)">
     <use style="fill:#ff7c00;stroke:#ffffff;stroke-width:0.565685;" x="721.145667" xlink:href="#C0_0_4a9d10f900" y="229.557418"/>
    </g>
    <g clip-path="url(#p7575542a56)">
     <use style="fill:#ff7c00;stroke:#ffffff;stroke-width:0.565685;" x="691.506682" xlink:href="#C0_0_4a9d10f900" y="223.863142"/>
    </g>
    <g clip-path="url(#p7575542a56)">
     <use style="fill:#ff7c00;stroke:#ffffff;stroke-width:0.565685;" x="590.793942" xlink:href="#C0_0_4a9d10f900" y="321.886037"/>
    </g>
    <g clip-path="url(#p7575542a56)">
     <use style="fill:#ff7c00;stroke:#ffffff;stroke-width:0.565685;" x="776.668923" xlink:href="#C0_0_4a9d10f900" y="246.640246"/>
    </g>
    <g clip-path="url(#p7575542a56)">
     <use style="fill:#ff7c00;stroke:#ffffff;stroke-width:0.565685;" x="714.865658" xlink:href="#C0_0_4a9d10f900" y="255.18166"/>
    </g>
    <g clip-path="url(#p7575542a56)">
     <use style="fill:#ff7c00;stroke:#ffffff;stroke-width:0.565685;" x="752.811534" xlink:href="#C0_0_4a9d10f900" y="224.269876"/>
    </g>
    <g clip-path="url(#p7575542a56)">
     <use style="fill:#ff7c00;stroke:#ffffff;stroke-width:0.565685;" x="677.019465" xlink:href="#C0_0_4a9d10f900" y="220.202536"/>
    </g>
    <g clip-path="url(#p7575542a56)">
     <use style="fill:#ff7c00;stroke:#ffffff;stroke-width:0.565685;" x="741.215115" xlink:href="#C0_0_4a9d10f900" y="190.104219"/>
    </g>
    <g clip-path="url(#p7575542a56)">
     <use style="fill:#ff7c00;stroke:#ffffff;stroke-width:0.565685;" x="559.759399" xlink:href="#C0_0_4a9d10f900" y="301.549337"/>
    </g>
    <g clip-path="url(#p7575542a56)">
     <use style="fill:#ff7c00;stroke:#ffffff;stroke-width:0.565685;" x="616.345937" xlink:href="#C0_0_4a9d10f900" y="336.935195"/>
    </g>
    <g clip-path="url(#p7575542a56)">
     <use style="fill:#ff7c00;stroke:#ffffff;stroke-width:0.565685;" x="653.062393" xlink:href="#C0_0_4a9d10f900" y="284.873243"/>
    </g>
    <g clip-path="url(#p7575542a56)">
     <use style="fill:#ff7c00;stroke:#ffffff;stroke-width:0.565685;" x="744.504643" xlink:href="#C0_0_4a9d10f900" y="283.246307"/>
    </g>
    <g clip-path="url(#p7575542a56)">
     <use style="fill:#ff7c00;stroke:#ffffff;stroke-width:0.565685;" x="640.867878" xlink:href="#C0_0_4a9d10f900" y="268.603882"/>
    </g>
    <g clip-path="url(#p7575542a56)">
     <use style="fill:#ff7c00;stroke:#ffffff;stroke-width:0.565685;" x="649.075086" xlink:href="#C0_0_4a9d10f900" y="310.497485"/>
    </g>
    <g clip-path="url(#p7575542a56)">
     <use style="fill:#ff7c00;stroke:#ffffff;stroke-width:0.565685;" x="733.805368" xlink:href="#C0_0_4a9d10f900" y="233.624758"/>
    </g>
    <g clip-path="url(#p7575542a56)">
     <use style="fill:#ff7c00;stroke:#ffffff;stroke-width:0.565685;" x="571.854232" xlink:href="#C0_0_4a9d10f900" y="306.430145"/>
    </g>
    <g clip-path="url(#p7575542a56)">
     <use style="fill:#ff7c00;stroke:#ffffff;stroke-width:0.565685;" x="810.494581" xlink:href="#C0_0_4a9d10f900" y="211.661121"/>
    </g>
    <g clip-path="url(#p7575542a56)">
     <use style="fill:#ff7c00;stroke:#ffffff;stroke-width:0.565685;" x="726.794353" xlink:href="#C0_0_4a9d10f900" y="288.533849"/>
    </g>
    <g clip-path="url(#p7575542a56)">
     <use style="fill:#ff7c00;stroke:#ffffff;stroke-width:0.565685;" x="652.995938" xlink:href="#C0_0_4a9d10f900" y="279.585701"/>
    </g>
    <g clip-path="url(#p7575542a56)">
     <use style="fill:#ff7c00;stroke:#ffffff;stroke-width:0.565685;" x="760.952287" xlink:href="#C0_0_4a9d10f900" y="245.01331"/>
    </g>
   </g>
   <g id="PathCollection_10"/>
   <g id="PathCollection_11"/>
   <g id="matplotlib.axis_3">
    <g id="xtick_7">
     <g id="line2d_15">
      <g>
       <use style="stroke:#000000;" x="596.077124" xlink:href="#ma75637875b" y="351.76065"/>
      </g>
     </g>
     <g id="text_19">
      <!-- 450 -->
      <g transform="translate(581.799674 371.427912)scale(0.1496 -0.1496)">
       <use xlink:href="#DejaVuSans-52"/>
       <use x="63.623047" xlink:href="#DejaVuSans-53"/>
       <use x="127.246094" xlink:href="#DejaVuSans-48"/>
      </g>
     </g>
    </g>
    <g id="xtick_8">
     <g id="line2d_16">
      <g>
       <use style="stroke:#000000;" x="662.532248" xlink:href="#ma75637875b" y="351.76065"/>
      </g>
     </g>
     <g id="text_20">
      <!-- 500 -->
      <g transform="translate(648.254798 371.427912)scale(0.1496 -0.1496)">
       <use xlink:href="#DejaVuSans-53"/>
       <use x="63.623047" xlink:href="#DejaVuSans-48"/>
       <use x="127.246094" xlink:href="#DejaVuSans-48"/>
      </g>
     </g>
    </g>
    <g id="xtick_9">
     <g id="line2d_17">
      <g>
       <use style="stroke:#000000;" x="728.987372" xlink:href="#ma75637875b" y="351.76065"/>
      </g>
     </g>
     <g id="text_21">
      <!-- 550 -->
      <g transform="translate(714.709922 371.427912)scale(0.1496 -0.1496)">
       <use xlink:href="#DejaVuSans-53"/>
       <use x="63.623047" xlink:href="#DejaVuSans-53"/>
       <use x="127.246094" xlink:href="#DejaVuSans-48"/>
      </g>
     </g>
    </g>
    <g id="xtick_10">
     <g id="line2d_18">
      <g>
       <use style="stroke:#000000;" x="795.442496" xlink:href="#ma75637875b" y="351.76065"/>
      </g>
     </g>
     <g id="text_22">
      <!-- 600 -->
      <g transform="translate(781.165046 371.427912)scale(0.1496 -0.1496)">
       <use xlink:href="#DejaVuSans-54"/>
       <use x="63.623047" xlink:href="#DejaVuSans-48"/>
       <use x="127.246094" xlink:href="#DejaVuSans-48"/>
      </g>
     </g>
    </g>
    <g id="xtick_11">
     <g id="line2d_19">
      <g>
       <use style="stroke:#000000;" x="861.89762" xlink:href="#ma75637875b" y="351.76065"/>
      </g>
     </g>
     <g id="text_23">
      <!-- 650 -->
      <g transform="translate(847.62017 371.427912)scale(0.1496 -0.1496)">
       <use xlink:href="#DejaVuSans-54"/>
       <use x="63.623047" xlink:href="#DejaVuSans-53"/>
       <use x="127.246094" xlink:href="#DejaVuSans-48"/>
      </g>
     </g>
    </g>
    <g id="xtick_12">
     <g id="line2d_20">
      <g>
       <use style="stroke:#000000;" x="928.352743" xlink:href="#ma75637875b" y="351.76065"/>
      </g>
     </g>
     <g id="text_24">
      <!-- 700 -->
      <g transform="translate(914.075293 371.427912)scale(0.1496 -0.1496)">
       <use xlink:href="#DejaVuSans-55"/>
       <use x="63.623047" xlink:href="#DejaVuSans-48"/>
       <use x="127.246094" xlink:href="#DejaVuSans-48"/>
      </g>
     </g>
    </g>
    <g id="text_25">
     <!-- ENEM -->
     <g transform="translate(720.764759 390.939775)scale(0.1632 -0.1632)">
      <use xlink:href="#DejaVuSans-69"/>
      <use x="63.183594" xlink:href="#DejaVuSans-78"/>
      <use x="137.988281" xlink:href="#DejaVuSans-69"/>
      <use x="201.171875" xlink:href="#DejaVuSans-77"/>
     </g>
    </g>
   </g>
   <g id="matplotlib.axis_4">
    <g id="ytick_6">
     <g id="line2d_21">
      <g>
       <use style="stroke:#000000;" x="541.313118" xlink:href="#me8e9a8f286" y="326.766845"/>
      </g>
     </g>
     <g id="text_26">
      <!-- 10 -->
      <g transform="translate(513.976518 332.450477)scale(0.1496 -0.1496)">
       <use xlink:href="#DejaVuSans-49"/>
       <use x="63.623047" xlink:href="#DejaVuSans-48"/>
      </g>
     </g>
    </g>
    <g id="ytick_7">
     <g id="line2d_22">
      <g>
       <use style="stroke:#000000;" x="541.313118" xlink:href="#me8e9a8f286" y="286.093445"/>
      </g>
     </g>
     <g id="text_27">
      <!-- 20 -->
      <g transform="translate(513.976518 291.777076)scale(0.1496 -0.1496)">
       <use xlink:href="#DejaVuSans-50"/>
       <use x="63.623047" xlink:href="#DejaVuSans-48"/>
      </g>
     </g>
    </g>
    <g id="ytick_8">
     <g id="line2d_23">
      <g>
       <use style="stroke:#000000;" x="541.313118" xlink:href="#me8e9a8f286" y="245.420044"/>
      </g>
     </g>
     <g id="text_28">
      <!-- 30 -->
      <g transform="translate(513.976518 251.103675)scale(0.1496 -0.1496)">
       <use xlink:href="#DejaVuSans-51"/>
       <use x="63.623047" xlink:href="#DejaVuSans-48"/>
      </g>
     </g>
    </g>
    <g id="ytick_9">
     <g id="line2d_24">
      <g>
       <use style="stroke:#000000;" x="541.313118" xlink:href="#me8e9a8f286" y="204.746643"/>
      </g>
     </g>
     <g id="text_29">
      <!-- 40 -->
      <g transform="translate(513.976518 210.430275)scale(0.1496 -0.1496)">
       <use xlink:href="#DejaVuSans-52"/>
       <use x="63.623047" xlink:href="#DejaVuSans-48"/>
      </g>
     </g>
    </g>
    <g id="ytick_10">
     <g id="line2d_25">
      <g>
       <use style="stroke:#000000;" x="541.313118" xlink:href="#me8e9a8f286" y="164.073243"/>
      </g>
     </g>
     <g id="text_30">
      <!-- 50 -->
      <g transform="translate(513.976518 169.756874)scale(0.1496 -0.1496)">
       <use xlink:href="#DejaVuSans-53"/>
       <use x="63.623047" xlink:href="#DejaVuSans-48"/>
      </g>
     </g>
    </g>
    <g id="ytick_11">
     <g id="line2d_26">
      <g>
       <use style="stroke:#000000;" x="541.313118" xlink:href="#me8e9a8f286" y="123.399842"/>
      </g>
     </g>
     <g id="text_31">
      <!-- 60 -->
      <g transform="translate(513.976518 129.083473)scale(0.1496 -0.1496)">
       <use xlink:href="#DejaVuSans-54"/>
       <use x="63.623047" xlink:href="#DejaVuSans-48"/>
      </g>
     </g>
    </g>
    <g id="ytick_12">
     <g id="line2d_27">
      <g>
       <use style="stroke:#000000;" x="541.313118" xlink:href="#me8e9a8f286" y="82.726441"/>
      </g>
     </g>
     <g id="text_32">
      <!-- 70 -->
      <g transform="translate(513.976518 88.410072)scale(0.1496 -0.1496)">
       <use xlink:href="#DejaVuSans-55"/>
       <use x="63.623047" xlink:href="#DejaVuSans-48"/>
      </g>
     </g>
    </g>
    <g id="ytick_13">
     <g id="line2d_28">
      <g>
       <use style="stroke:#000000;" x="541.313118" xlink:href="#me8e9a8f286" y="42.053041"/>
      </g>
     </g>
     <g id="text_33">
      <!-- 80 -->
      <g transform="translate(513.976518 47.736672)scale(0.1496 -0.1496)">
       <use xlink:href="#DejaVuSans-56"/>
       <use x="63.623047" xlink:href="#DejaVuSans-48"/>
      </g>
     </g>
    </g>
    <g id="text_34">
     <!-- ENADE -->
     <g transform="translate(506.582468 216.9627)rotate(-90)scale(0.1632 -0.1632)">
      <use xlink:href="#DejaVuSans-69"/>
      <use x="63.183594" xlink:href="#DejaVuSans-78"/>
      <use x="137.988281" xlink:href="#DejaVuSans-65"/>
      <use x="206.396484" xlink:href="#DejaVuSans-68"/>
      <use x="283.398438" xlink:href="#DejaVuSans-69"/>
     </g>
    </g>
   </g>
   <g id="line2d_29">
    <path clip-path="url(#p7575542a56)" d="M 651.101967 192.260961 
L 665.290136 187.160795 
L 682.867516 180.842323 
L 688.615884 178.77598 
L 690.343717 178.154882 
L 702.737598 173.699703 
L 712.639411 170.140336 
L 718.487462 168.03816 
L 735.699339 161.851074 
L 738.82273 160.728321 
L 743.109086 159.187522 
L 749.721371 156.81063 
L 750.917563 156.380639 
L 752.977672 155.6401 
L 759.157998 153.418482 
L 781.952106 145.224773 
L 784.444173 144.32896 
L 790.192541 142.262616 
L 796.505778 139.993222 
L 798.864935 139.145185 
L 799.230438 139.013799 
L 799.994672 138.739083 
L 803.051607 137.640218 
L 808.899658 135.538042 
L 810.062623 135.119996 
L 827.108362 128.99263 
L 832.657365 126.997952 
L 842.393041 123.498307 
L 849.968925 120.775033 
L 851.829668 120.106159 
L 858.674546 117.645658 
L 908.615572 99.693553 
L 925.162897 93.74535 
L 928.685019 92.479267 
" style="fill:none;stroke:#023eff;stroke-linecap:square;stroke-width:3;"/>
   </g>
   <g id="line2d_30">
    <path clip-path="url(#p7575542a56)" d="M 559.759399 300.493847 
L 571.854232 296.146165 
L 590.793942 289.337981 
L 616.345937 280.152906 
L 640.867878 271.338099 
L 649.075086 268.387887 
L 652.995938 266.978473 
L 653.062393 266.954585 
L 677.019465 258.34283 
L 691.506682 253.135167 
L 714.865658 244.738407 
L 721.145667 242.480956 
L 726.794353 240.450445 
L 733.805368 237.930223 
L 741.215115 235.266671 
L 744.504643 234.084197 
L 752.811534 231.098151 
L 760.952287 228.171827 
L 776.668923 222.522229 
L 810.494581 210.363052 
L 821.659042 206.349807 
" style="fill:none;stroke:#ff7c00;stroke-linecap:square;stroke-width:3;"/>
   </g>
   <g id="line2d_31"/>
   <g id="line2d_32"/>
   <g id="line2d_33">
    <path clip-path="url(#p7575542a56)" d="M 559.759399 269.544482 
L 571.854232 265.1968 
L 590.793942 258.388617 
L 616.345937 249.203541 
L 640.867878 240.388735 
L 649.075086 237.438522 
L 651.101967 236.709927 
L 652.995938 236.029108 
L 653.062393 236.00522 
L 665.290136 231.609761 
L 677.019465 227.393465 
L 682.867516 225.291289 
L 688.615884 223.224945 
L 690.343717 222.603848 
L 691.506682 222.185802 
L 702.737598 218.148668 
L 712.639411 214.589302 
L 714.865658 213.789042 
L 718.487462 212.487126 
L 721.145667 211.531592 
L 726.794353 209.501081 
L 733.805368 206.980858 
L 735.699339 206.30004 
L 738.82273 205.177287 
L 741.215115 204.317306 
L 743.109086 203.636487 
L 744.504643 203.134832 
L 749.721371 201.259595 
L 750.917563 200.829605 
L 752.811534 200.148786 
L 752.977672 200.089065 
L 759.157998 197.867448 
L 760.952287 197.222462 
L 776.668923 191.572864 
L 781.952106 189.673739 
L 784.444173 188.777925 
L 790.192541 186.711582 
L 796.505778 184.442187 
L 798.864935 183.59415 
L 799.230438 183.462764 
L 799.994672 183.188048 
L 803.051607 182.089184 
L 808.899658 179.987008 
L 810.062623 179.568961 
L 810.494581 179.413687 
L 821.659042 175.400442 
L 827.108362 173.441596 
L 832.657365 171.446918 
L 842.393041 167.947272 
L 849.968925 165.223999 
L 851.829668 164.555125 
L 858.674546 162.094623 
L 908.615572 144.142518 
L 925.162897 138.194316 
L 928.685019 136.928232 
" style="fill:none;stroke:#808080;stroke-linecap:square;stroke-width:3;"/>
   </g>
   <g id="patch_8">
    <path d="M 541.313118 351.76065 
L 541.313118 25.60065 
" style="fill:none;stroke:#000000;stroke-linecap:square;stroke-linejoin:miter;"/>
   </g>
   <g id="patch_9">
    <path d="M 541.313118 351.76065 
L 947.1313 351.76065 
" style="fill:none;stroke:#000000;stroke-linecap:square;stroke-linejoin:miter;"/>
   </g>
   <g id="patch_10">
    <path d="M 843.290185 47.408043 
Q 843.290185 82.726835 843.290185 118.045627 
" style="fill:none;stroke:#023eff;stroke-linecap:round;stroke-width:3;"/>
    <path d="M 840.026185 53.936043 
L 843.290185 47.408043 
L 846.554185 53.936043 
" style="fill:none;stroke:#023eff;stroke-linecap:round;stroke-width:3;"/>
    <path d="M 846.554185 111.517627 
L 843.290185 118.045627 
L 840.026185 111.517627 
" style="fill:none;stroke:#023eff;stroke-linecap:round;stroke-width:3;"/>
   </g>
   <g id="text_35">
    <!-- $IDD_{ic}$ -->
    <g transform="translate(855.252107 82.726441)scale(0.1632 -0.1632)">
     <defs>
      <path d="M 16.890625 72.90625 
L 26.8125 72.90625 
L 12.59375 0 
L 2.6875 0 
z
" id="DejaVuSans-Oblique-73"/>
      <path d="M 16.890625 72.90625 
L 38.09375 72.90625 
Q 54.984375 72.90625 63.59375 65.75 
Q 72.21875 58.59375 72.21875 44.484375 
Q 72.21875 35.15625 68.9375 26.53125 
Q 65.671875 17.921875 59.90625 12.015625 
Q 54.109375 5.953125 45.171875 2.96875 
Q 36.234375 0 24.03125 0 
L 2.6875 0 
z
M 25.203125 64.796875 
L 14.203125 8.109375 
L 27.09375 8.109375 
Q 43.65625 8.109375 52.734375 17.625 
Q 61.8125 27.15625 61.8125 44.484375 
Q 61.8125 54.984375 55.953125 59.890625 
Q 50.09375 64.796875 37.59375 64.796875 
z
" id="DejaVuSans-Oblique-68"/>
      <path d="M 18.3125 75.984375 
L 27.296875 75.984375 
L 25.09375 64.59375 
L 16.109375 64.59375 
z
M 14.203125 54.6875 
L 23.1875 54.6875 
L 12.5 0 
L 3.515625 0 
z
" id="DejaVuSans-Oblique-105"/>
      <path d="M 53.609375 52.59375 
L 51.8125 43.703125 
Q 48.578125 46.046875 44.9375 47.21875 
Q 41.3125 48.390625 37.40625 48.390625 
Q 33.109375 48.390625 29.21875 46.875 
Q 25.34375 45.359375 22.703125 42.578125 
Q 18.5 38.328125 16.203125 32.609375 
Q 13.921875 26.90625 13.921875 20.796875 
Q 13.921875 13.421875 17.609375 9.8125 
Q 21.296875 6.203125 28.8125 6.203125 
Q 32.515625 6.203125 36.6875 7.328125 
Q 40.875 8.453125 45.40625 10.6875 
L 43.703125 1.8125 
Q 39.796875 0.203125 35.671875 -0.609375 
Q 31.546875 -1.421875 27.203125 -1.421875 
Q 16.3125 -1.421875 10.453125 4.015625 
Q 4.59375 9.46875 4.59375 19.578125 
Q 4.59375 28.078125 7.640625 35.234375 
Q 10.6875 42.390625 16.703125 48.09375 
Q 20.796875 52 26.3125 54 
Q 31.84375 56 38.375 56 
Q 42.1875 56 45.9375 55.140625 
Q 49.703125 54.296875 53.609375 52.59375 
z
" id="DejaVuSans-Oblique-99"/>
     </defs>
     <use transform="translate(0 0.09375)" xlink:href="#DejaVuSans-Oblique-73"/>
     <use transform="translate(29.492188 0.09375)" xlink:href="#DejaVuSans-Oblique-68"/>
     <use transform="translate(106.494141 0.09375)" xlink:href="#DejaVuSans-Oblique-68"/>
     <use transform="translate(183.496094 -16.3125)scale(0.7)" xlink:href="#DejaVuSans-Oblique-105"/>
     <use transform="translate(202.944336 -16.3125)scale(0.7)" xlink:href="#DejaVuSans-Oblique-99"/>
    </g>
   </g>
   <g id="patch_11">
    <path d="M 695.75981 181.63101 
Q 695.75981 198.646063 695.75981 215.661115 
" style="fill:none;stroke:#023eff;stroke-linecap:round;stroke-width:3;"/>
    <path d="M 692.49581 188.15901 
L 695.75981 181.63101 
L 699.02381 188.15901 
" style="fill:none;stroke:#023eff;stroke-linecap:round;stroke-width:3;"/>
    <path d="M 699.02381 209.133115 
L 695.75981 215.661115 
L 692.49581 209.133115 
" style="fill:none;stroke:#023eff;stroke-linecap:round;stroke-width:3;"/>
   </g>
   <g id="text_36">
    <!-- Intercept -->
    <g transform="translate(609.368149 208.813983)scale(0.1632 -0.1632)">
     <defs>
      <path d="M 54.890625 33.015625 
L 54.890625 0 
L 45.90625 0 
L 45.90625 32.71875 
Q 45.90625 40.484375 42.875 44.328125 
Q 39.84375 48.1875 33.796875 48.1875 
Q 26.515625 48.1875 22.3125 43.546875 
Q 18.109375 38.921875 18.109375 30.90625 
L 18.109375 0 
L 9.078125 0 
L 9.078125 54.6875 
L 18.109375 54.6875 
L 18.109375 46.1875 
Q 21.34375 51.125 25.703125 53.5625 
Q 30.078125 56 35.796875 56 
Q 45.21875 56 50.046875 50.171875 
Q 54.890625 44.34375 54.890625 33.015625 
z
" id="DejaVuSans-110"/>
      <path d="M 48.78125 52.59375 
L 48.78125 44.1875 
Q 44.96875 46.296875 41.140625 47.34375 
Q 37.3125 48.390625 33.40625 48.390625 
Q 24.65625 48.390625 19.8125 42.84375 
Q 14.984375 37.3125 14.984375 27.296875 
Q 14.984375 17.28125 19.8125 11.734375 
Q 24.65625 6.203125 33.40625 6.203125 
Q 37.3125 6.203125 41.140625 7.25 
Q 44.96875 8.296875 48.78125 10.40625 
L 48.78125 2.09375 
Q 45.015625 0.34375 40.984375 -0.53125 
Q 36.96875 -1.421875 32.421875 -1.421875 
Q 20.0625 -1.421875 12.78125 6.34375 
Q 5.515625 14.109375 5.515625 27.296875 
Q 5.515625 40.671875 12.859375 48.328125 
Q 20.21875 56 33.015625 56 
Q 37.15625 56 41.109375 55.140625 
Q 45.0625 54.296875 48.78125 52.59375 
z
" id="DejaVuSans-99"/>
      <path d="M 18.109375 8.203125 
L 18.109375 -20.796875 
L 9.078125 -20.796875 
L 9.078125 54.6875 
L 18.109375 54.6875 
L 18.109375 46.390625 
Q 20.953125 51.265625 25.265625 53.625 
Q 29.59375 56 35.59375 56 
Q 45.5625 56 51.78125 48.09375 
Q 58.015625 40.1875 58.015625 27.296875 
Q 58.015625 14.40625 51.78125 6.484375 
Q 45.5625 -1.421875 35.59375 -1.421875 
Q 29.59375 -1.421875 25.265625 0.953125 
Q 20.953125 3.328125 18.109375 8.203125 
z
M 48.6875 27.296875 
Q 48.6875 37.203125 44.609375 42.84375 
Q 40.53125 48.484375 33.40625 48.484375 
Q 26.265625 48.484375 22.1875 42.84375 
Q 18.109375 37.203125 18.109375 27.296875 
Q 18.109375 17.390625 22.1875 11.75 
Q 26.265625 6.109375 33.40625 6.109375 
Q 40.53125 6.109375 44.609375 11.75 
Q 48.6875 17.390625 48.6875 27.296875 
z
" id="DejaVuSans-112"/>
     </defs>
     <use xlink:href="#DejaVuSans-73"/>
     <use x="29.492188" xlink:href="#DejaVuSans-110"/>
     <use x="92.871094" xlink:href="#DejaVuSans-116"/>
     <use x="132.080078" xlink:href="#DejaVuSans-101"/>
     <use x="193.603516" xlink:href="#DejaVuSans-114"/>
     <use x="232.466797" xlink:href="#DejaVuSans-99"/>
     <use x="287.447266" xlink:href="#DejaVuSans-101"/>
     <use x="348.970703" xlink:href="#DejaVuSans-112"/>
     <use x="412.447266" xlink:href="#DejaVuSans-116"/>
    </g>
   </g>
   <g id="text_37">
    <!-- Civil Engineering (2019) -->
    <g transform="translate(645.611159 19.60065)scale(0.1632 -0.1632)">
     <defs>
      <path d="M 2.984375 54.6875 
L 12.5 54.6875 
L 29.59375 8.796875 
L 46.6875 54.6875 
L 56.203125 54.6875 
L 35.6875 0 
L 23.484375 0 
z
" id="DejaVuSans-118"/>
      <path d="M 45.40625 27.984375 
Q 45.40625 37.75 41.375 43.109375 
Q 37.359375 48.484375 30.078125 48.484375 
Q 22.859375 48.484375 18.828125 43.109375 
Q 14.796875 37.75 14.796875 27.984375 
Q 14.796875 18.265625 18.828125 12.890625 
Q 22.859375 7.515625 30.078125 7.515625 
Q 37.359375 7.515625 41.375 12.890625 
Q 45.40625 18.265625 45.40625 27.984375 
z
M 54.390625 6.78125 
Q 54.390625 -7.171875 48.1875 -13.984375 
Q 42 -20.796875 29.203125 -20.796875 
Q 24.46875 -20.796875 20.265625 -20.09375 
Q 16.0625 -19.390625 12.109375 -17.921875 
L 12.109375 -9.1875 
Q 16.0625 -11.328125 19.921875 -12.34375 
Q 23.78125 -13.375 27.78125 -13.375 
Q 36.625 -13.375 41.015625 -8.765625 
Q 45.40625 -4.15625 45.40625 5.171875 
L 45.40625 9.625 
Q 42.625 4.78125 38.28125 2.390625 
Q 33.9375 0 27.875 0 
Q 17.828125 0 11.671875 7.65625 
Q 5.515625 15.328125 5.515625 27.984375 
Q 5.515625 40.671875 11.671875 48.328125 
Q 17.828125 56 27.875 56 
Q 33.9375 56 38.28125 53.609375 
Q 42.625 51.21875 45.40625 46.390625 
L 45.40625 54.6875 
L 54.390625 54.6875 
z
" id="DejaVuSans-103"/>
      <path d="M 31 75.875 
Q 24.46875 64.65625 21.28125 53.65625 
Q 18.109375 42.671875 18.109375 31.390625 
Q 18.109375 20.125 21.3125 9.0625 
Q 24.515625 -2 31 -13.1875 
L 23.1875 -13.1875 
Q 15.875 -1.703125 12.234375 9.375 
Q 8.59375 20.453125 8.59375 31.390625 
Q 8.59375 42.28125 12.203125 53.3125 
Q 15.828125 64.359375 23.1875 75.875 
z
" id="DejaVuSans-40"/>
      <path d="M 10.984375 1.515625 
L 10.984375 10.5 
Q 14.703125 8.734375 18.5 7.8125 
Q 22.3125 6.890625 25.984375 6.890625 
Q 35.75 6.890625 40.890625 13.453125 
Q 46.046875 20.015625 46.78125 33.40625 
Q 43.953125 29.203125 39.59375 26.953125 
Q 35.25 24.703125 29.984375 24.703125 
Q 19.046875 24.703125 12.671875 31.3125 
Q 6.296875 37.9375 6.296875 49.421875 
Q 6.296875 60.640625 12.9375 67.421875 
Q 19.578125 74.21875 30.609375 74.21875 
Q 43.265625 74.21875 49.921875 64.515625 
Q 56.59375 54.828125 56.59375 36.375 
Q 56.59375 19.140625 48.40625 8.859375 
Q 40.234375 -1.421875 26.421875 -1.421875 
Q 22.703125 -1.421875 18.890625 -0.6875 
Q 15.09375 0.046875 10.984375 1.515625 
z
M 30.609375 32.421875 
Q 37.25 32.421875 41.125 36.953125 
Q 45.015625 41.5 45.015625 49.421875 
Q 45.015625 57.28125 41.125 61.84375 
Q 37.25 66.40625 30.609375 66.40625 
Q 23.96875 66.40625 20.09375 61.84375 
Q 16.21875 57.28125 16.21875 49.421875 
Q 16.21875 41.5 20.09375 36.953125 
Q 23.96875 32.421875 30.609375 32.421875 
z
" id="DejaVuSans-57"/>
      <path d="M 8.015625 75.875 
L 15.828125 75.875 
Q 23.140625 64.359375 26.78125 53.3125 
Q 30.421875 42.28125 30.421875 31.390625 
Q 30.421875 20.453125 26.78125 9.375 
Q 23.140625 -1.703125 15.828125 -13.1875 
L 8.015625 -13.1875 
Q 14.5 -2 17.703125 9.0625 
Q 20.90625 20.125 20.90625 31.390625 
Q 20.90625 42.671875 17.703125 53.65625 
Q 14.5 64.65625 8.015625 75.875 
z
" id="DejaVuSans-41"/>
     </defs>
     <use xlink:href="#DejaVuSans-67"/>
     <use x="69.824219" xlink:href="#DejaVuSans-105"/>
     <use x="97.607422" xlink:href="#DejaVuSans-118"/>
     <use x="156.787109" xlink:href="#DejaVuSans-105"/>
     <use x="184.570312" xlink:href="#DejaVuSans-108"/>
     <use x="212.353516" xlink:href="#DejaVuSans-32"/>
     <use x="244.140625" xlink:href="#DejaVuSans-69"/>
     <use x="307.324219" xlink:href="#DejaVuSans-110"/>
     <use x="370.703125" xlink:href="#DejaVuSans-103"/>
     <use x="434.179688" xlink:href="#DejaVuSans-105"/>
     <use x="461.962891" xlink:href="#DejaVuSans-110"/>
     <use x="525.341797" xlink:href="#DejaVuSans-101"/>
     <use x="586.865234" xlink:href="#DejaVuSans-101"/>
     <use x="648.388672" xlink:href="#DejaVuSans-114"/>
     <use x="689.501953" xlink:href="#DejaVuSans-105"/>
     <use x="717.285156" xlink:href="#DejaVuSans-110"/>
     <use x="780.664062" xlink:href="#DejaVuSans-103"/>
     <use x="844.140625" xlink:href="#DejaVuSans-32"/>
     <use x="875.927734" xlink:href="#DejaVuSans-40"/>
     <use x="914.941406" xlink:href="#DejaVuSans-50"/>
     <use x="978.564453" xlink:href="#DejaVuSans-48"/>
     <use x="1042.1875" xlink:href="#DejaVuSans-49"/>
     <use x="1105.810547" xlink:href="#DejaVuSans-57"/>
     <use x="1169.433594" xlink:href="#DejaVuSans-41"/>
    </g>
   </g>
   <g id="legend_2">
    <g id="patch_12">
     <path d="M 767.43365 344.28065 
L 936.6593 344.28065 
Q 939.6513 344.28065 939.6513 341.28865 
L 939.6513 276.909225 
Q 939.6513 273.917225 936.6593 273.917225 
L 767.43365 273.917225 
Q 764.44165 273.917225 764.44165 276.909225 
L 764.44165 341.28865 
Q 764.44165 344.28065 767.43365 344.28065 
z
" style="fill:#ffffff;opacity:0.8;stroke:#cccccc;stroke-linejoin:miter;stroke-width:0.8;"/>
    </g>
    <g id="line2d_34">
     <path d="M 770.42565 286.032488 
L 800.34565 286.032488 
" style="fill:none;stroke:#023eff;stroke-linecap:square;stroke-width:4;"/>
    </g>
    <g id="line2d_35"/>
    <g id="text_38">
     <!-- High IDD course -->
     <g transform="translate(812.31365 291.268487)scale(0.1496 -0.1496)">
      <defs>
       <path d="M 9.8125 72.90625 
L 19.671875 72.90625 
L 19.671875 43.015625 
L 55.515625 43.015625 
L 55.515625 72.90625 
L 65.375 72.90625 
L 65.375 0 
L 55.515625 0 
L 55.515625 34.71875 
L 19.671875 34.71875 
L 19.671875 0 
L 9.8125 0 
z
" id="DejaVuSans-72"/>
       <path d="M 54.890625 33.015625 
L 54.890625 0 
L 45.90625 0 
L 45.90625 32.71875 
Q 45.90625 40.484375 42.875 44.328125 
Q 39.84375 48.1875 33.796875 48.1875 
Q 26.515625 48.1875 22.3125 43.546875 
Q 18.109375 38.921875 18.109375 30.90625 
L 18.109375 0 
L 9.078125 0 
L 9.078125 75.984375 
L 18.109375 75.984375 
L 18.109375 46.1875 
Q 21.34375 51.125 25.703125 53.5625 
Q 30.078125 56 35.796875 56 
Q 45.21875 56 50.046875 50.171875 
Q 54.890625 44.34375 54.890625 33.015625 
z
" id="DejaVuSans-104"/>
      </defs>
      <use xlink:href="#DejaVuSans-72"/>
      <use x="75.195312" xlink:href="#DejaVuSans-105"/>
      <use x="102.978516" xlink:href="#DejaVuSans-103"/>
      <use x="166.455078" xlink:href="#DejaVuSans-104"/>
      <use x="229.833984" xlink:href="#DejaVuSans-32"/>
      <use x="261.621094" xlink:href="#DejaVuSans-73"/>
      <use x="291.113281" xlink:href="#DejaVuSans-68"/>
      <use x="368.115234" xlink:href="#DejaVuSans-68"/>
      <use x="445.117188" xlink:href="#DejaVuSans-32"/>
      <use x="476.904297" xlink:href="#DejaVuSans-99"/>
      <use x="531.884766" xlink:href="#DejaVuSans-111"/>
      <use x="593.066406" xlink:href="#DejaVuSans-117"/>
      <use x="656.445312" xlink:href="#DejaVuSans-114"/>
      <use x="697.558594" xlink:href="#DejaVuSans-115"/>
      <use x="749.658203" xlink:href="#DejaVuSans-101"/>
     </g>
    </g>
    <g id="line2d_36">
     <path d="M 770.42565 307.990963 
L 800.34565 307.990963 
" style="fill:none;stroke:#ff7c00;stroke-linecap:square;stroke-width:4;"/>
    </g>
    <g id="line2d_37"/>
    <g id="text_39">
     <!-- Low IDD course -->
     <g transform="translate(812.31365 313.226963)scale(0.1496 -0.1496)">
      <defs>
       <path d="M 9.8125 72.90625 
L 19.671875 72.90625 
L 19.671875 8.296875 
L 55.171875 8.296875 
L 55.171875 0 
L 9.8125 0 
z
" id="DejaVuSans-76"/>
       <path d="M 4.203125 54.6875 
L 13.1875 54.6875 
L 24.421875 12.015625 
L 35.59375 54.6875 
L 46.1875 54.6875 
L 57.421875 12.015625 
L 68.609375 54.6875 
L 77.59375 54.6875 
L 63.28125 0 
L 52.6875 0 
L 40.921875 44.828125 
L 29.109375 0 
L 18.5 0 
z
" id="DejaVuSans-119"/>
      </defs>
      <use xlink:href="#DejaVuSans-76"/>
      <use x="53.962891" xlink:href="#DejaVuSans-111"/>
      <use x="115.144531" xlink:href="#DejaVuSans-119"/>
      <use x="196.931641" xlink:href="#DejaVuSans-32"/>
      <use x="228.71875" xlink:href="#DejaVuSans-73"/>
      <use x="258.210938" xlink:href="#DejaVuSans-68"/>
      <use x="335.212891" xlink:href="#DejaVuSans-68"/>
      <use x="412.214844" xlink:href="#DejaVuSans-32"/>
      <use x="444.001953" xlink:href="#DejaVuSans-99"/>
      <use x="498.982422" xlink:href="#DejaVuSans-111"/>
      <use x="560.164062" xlink:href="#DejaVuSans-117"/>
      <use x="623.542969" xlink:href="#DejaVuSans-114"/>
      <use x="664.65625" xlink:href="#DejaVuSans-115"/>
      <use x="716.755859" xlink:href="#DejaVuSans-101"/>
     </g>
    </g>
    <g id="line2d_38">
     <path d="M 770.42565 329.949437 
L 800.34565 329.949437 
" style="fill:none;stroke:#808080;stroke-linecap:square;stroke-width:4;"/>
    </g>
    <g id="line2d_39"/>
    <g id="text_40">
     <!-- Area average -->
     <g transform="translate(812.31365 335.185437)scale(0.1496 -0.1496)">
      <use xlink:href="#DejaVuSans-65"/>
      <use x="68.408203" xlink:href="#DejaVuSans-114"/>
      <use x="107.271484" xlink:href="#DejaVuSans-101"/>
      <use x="168.794922" xlink:href="#DejaVuSans-97"/>
      <use x="230.074219" xlink:href="#DejaVuSans-32"/>
      <use x="261.861328" xlink:href="#DejaVuSans-97"/>
      <use x="323.140625" xlink:href="#DejaVuSans-118"/>
      <use x="382.320312" xlink:href="#DejaVuSans-101"/>
      <use x="443.84375" xlink:href="#DejaVuSans-114"/>
      <use x="484.957031" xlink:href="#DejaVuSans-97"/>
      <use x="546.236328" xlink:href="#DejaVuSans-103"/>
      <use x="609.712891" xlink:href="#DejaVuSans-101"/>
     </g>
    </g>
   </g>
  </g>
 </g>
 <defs>
  <clipPath id="p81d9b8422f">
   <rect height="326.16" width="405.818182" x="54.3313" y="25.60065"/>
  </clipPath>
  <clipPath id="p7575542a56">
   <rect height="326.16" width="405.818182" x="541.313118" y="25.60065"/>
  </clipPath>
 </defs>
</svg>
